<?xml version="1.0" standalone="no"?>
<!DOCTYPE svg PUBLIC "-//W3C//DTD SVG 1.1//EN" "http://www.w3.org/Graphics/SVG/1.1/DTD/svg11.dtd" >
<svg>
<metadata>
Created by FontForge 20090622 at Thu Nov 21 07:28:21 2019
 By deploy user
Copyright 2016 Google Inc. All Rights Reserved.
</metadata>
<defs>
<font id="NotoSansArmenian-SemiBold" horiz-adv-x="624" >
  <font-face 
    font-family="Noto Sans Armenian SemBd"
    font-weight="600"
    font-stretch="normal"
    units-per-em="1000"
    panose-1="2 11 7 2 4 5 4 2 2 4"
    ascent="800"
    descent="-200"
    bbox="-21 -247 1496 845"
    underline-thickness="50"
    underline-position="-75"
    unicode-range="U+000D-U+FB17"
  />
    <missing-glyph />
    <glyph glyph-name="uniFB13" unicode="&#x574;&#x576;" horiz-adv-x="1239" 
d="M538 364v-364h-95l-14 75h-7q-20 -37 -59.5 -61t-97.5 -24q-86 0 -135 48t-49 139v320h121v-296q0 -57 25 -85.5t69 -28.5q57 0 89.5 44.5t32.5 132.5v98q0 32 -13 64t-47 70t-48.5 68.5t-14.5 53.5q0 59 41 100.5t132 41.5h256l99 -38l-21 -39q-5 -10 -7.5 -20.5
t-2.5 -20.5q0 -19 11 -32.5t40 -26.5l57 -29v-15q-56 -104 -79 -176.5t-23 -136.5q0 -74 29 -106.5t81 -32.5q57 0 90.5 44.5t33.5 132.5v233h120v-497h-94l-15 75h-7q-20 -37 -59 -61t-98 -24q-96 0 -150 56t-54 158q0 72 29 145t83 152l-41 22q-33 17 -50.5 44t-17.5 55
q0 25 6 46h-223q-21 0 -33 -12.5t-12 -28.5q0 -23 14.5 -43.5t42.5 -50.5q37 -41 51 -79t14 -90z" />
    <glyph glyph-name="uniFB14" unicode="&#x574;&#x565;" horiz-adv-x="1252" 
d="M538 364v-364h-95l-14 75h-7q-20 -37 -59.5 -61t-97.5 -24q-86 0 -135 48t-49 139v320h121v-296q0 -57 25 -85.5t69 -28.5q57 0 89.5 44.5t32.5 132.5v98q0 32 -13 64t-47 70t-48.5 68.5t-14.5 53.5q0 59 41 100.5t132 41.5h361v-263h354v-92h-354v-204q0 -57 25.5 -85.5
t69.5 -28.5q57 0 89 44.5t32 132.5v45h121v-309h-95l-15 75h-6q-20 -37 -60 -61t-98 -24q-86 0 -134.5 48t-48.5 139v491h-248q-21 0 -33 -12.5t-12 -28.5q0 -23 14.5 -43.5t42.5 -50.5q37 -41 51 -79t14 -90z" />
    <glyph glyph-name="uniFB15" unicode="&#x574;&#x56b;" horiz-adv-x="1251" 
d="M538 364v-364h-95l-14 75h-7q-20 -37 -59.5 -61t-97.5 -24q-86 0 -135 48t-49 139v320h121v-296q0 -57 25 -85.5t69 -28.5q57 0 89.5 44.5t32.5 132.5v98q0 32 -13 64t-47 70t-48.5 68.5t-14.5 53.5q0 59 41 100.5t132 41.5h364v-247q0 -46 -6 -91h7q19 37 55.5 61
t96.5 24q87 0 135 -47.5t48 -138.5v-321h-120v296q0 58 -25 86t-70 28q-58 0 -89.5 -44.5t-31.5 -132.5v-471h-120v906h-251q-21 0 -33 -12t-12 -29q0 -23 14.5 -43.5t42.5 -50.5q37 -41 51 -79t14 -90z" />
    <glyph glyph-name="uniFB16" unicode="&#x57e;&#x576;" horiz-adv-x="1232" 
d="M538 -146h146v-92h-266v239q0 19 1.5 37t5.5 37h-7q-20 -37 -57.5 -61t-95.5 -24q-86 0 -135 48t-49 139v320h121v-296q0 -57 25 -85.5t69 -28.5q57 0 89.5 44.5t32.5 132.5v496h303l98 -38l-20 -39q-11 -20 -11 -41q0 -19 11.5 -32t41.5 -27l56 -29v-16
q-51 -87 -77 -163.5t-26 -148.5q0 -74 29 -106.5t81 -32.5q57 0 90.5 44.5t33.5 132.5v233h121v-497h-95l-14 75h-8q-20 -37 -59 -61t-97 -24q-96 0 -150 56t-54 158q0 72 27.5 145t81.5 153l-38 21q-33 18 -51 44.5t-18 54.5q0 24 6 46h-142v-814z" />
    <glyph glyph-name="uniFB17" unicode="&#x574;&#x56d;" horiz-adv-x="1580" 
d="M538 364v-364h-95l-14 75h-7q-20 -37 -59.5 -61t-97.5 -24q-86 0 -135 48t-49 139v320h121v-296q0 -57 25 -85.5t69 -28.5q57 0 89.5 44.5t32.5 132.5v98q0 32 -13 64t-47 70t-48.5 68.5t-14.5 53.5q0 59 41 100.5t132 41.5h370v-247q0 -23 -1.5 -46t-3.5 -45h6
q19 37 54 61t93 24q85 0 132 -47.5t47 -138.5v-120q0 -57 25 -85.5t68 -28.5q56 0 86.5 44.5t30.5 132.5v233h121v-497h-95l-15 75h-6q-20 -37 -57.5 -61t-95.5 -24q-85 0 -133.5 48t-48.5 139v119q0 58 -24 86t-66 28q-117 0 -117 -177v-471h-120v906h-257q-21 0 -33 -12
t-12 -29q0 -23 14.5 -43.5t42.5 -50.5q37 -41 51 -79t14 -90z" />
    <glyph glyph-name="uni0548_uni0552" unicode="&#x548;&#x552;" horiz-adv-x="1337" 
d="M87 0v462q0 78 32 137t94.5 92t154.5 33q133 0 204 -71t71 -193v-460h-122v443q0 96 -40 137.5t-117 41.5t-116 -43t-39 -134v-445h-122zM800 0v714h122v-166h42q52 0 83.5 -11t56 -41.5t54.5 -89.5q25 -50 41 -73t30 -29.5t33 -6.5h24v-102h-37q-57 0 -95.5 27.5
t-70.5 91.5q-28 58 -46 86t-36 37t-46 9h-33v-446h-122z" />
    <glyph glyph-name="uni0578_uni0582" unicode="&#x578;&#x582;" horiz-adv-x="972" 
d="M86 0v497h94l15 -75h7q20 37 59 61t98 24q86 0 134.5 -47.5t48.5 -138.5v-321h-120v296q0 58 -25.5 86t-69.5 28q-57 0 -89 -44.5t-32 -132.5v-233h-120zM686 0v497h120v-405h146v-92h-266z" />
    <glyph glyph-name="hyphentwo" horiz-adv-x="600" 
d="M94 0v714h411v-714h-411zM145 51h309v612h-309v-612z" />
    <glyph glyph-name="NULL" horiz-adv-x="0" 
 />
    <glyph glyph-name="NULL" horiz-adv-x="0" 
 />
    <glyph glyph-name="CR" unicode="&#xd;" horiz-adv-x="260" 
 />
    <glyph glyph-name="space" unicode=" " horiz-adv-x="260" 
 />
    <glyph glyph-name="uni0531" unicode="&#x531;" horiz-adv-x="843" 
d="M362 -10q-133 0 -203.5 71t-70.5 193v460h121v-442q0 -96 40.5 -138t116.5 -42q78 0 117 43.5t39 134.5v444h122v-462q0 -13 -1 -25q11 2 23 2q77 0 118 -41.5t41 -136.5v-51h-106v44q0 52 -18 72.5t-54 20.5q-14 0 -25 -1q-29 -68 -94.5 -107t-165.5 -39z" />
    <glyph glyph-name="uni0532" unicode="&#x532;" horiz-adv-x="709" 
d="M88 0v462q0 78 31 137t93 92t154 33q138 0 205.5 -73t67.5 -214h-122q0 97 -37 141t-117 44q-78 0 -116 -43.5t-38 -134.5v-97h433v-102h-433v-245h-121z" />
    <glyph glyph-name="uni0533" unicode="&#x533;" horiz-adv-x="767" 
d="M596 0h-121v246h-143q-135 0 -203 62.5t-68 177.5q0 111 71.5 174.5t196.5 63.5q131 0 199 -72t68 -221v-83h147v-102h-147v-246zM347 348h128v76q0 198 -146 198q-142 0 -142 -136q0 -68 36.5 -103t123.5 -35z" />
    <glyph glyph-name="uni0534" unicode="&#x534;" horiz-adv-x="774" 
d="M600 0h-122v445q0 95 -38.5 136t-113.5 41q-78 0 -114.5 -44.5t-36.5 -139.5h-122q0 133 68.5 209.5t207.5 76.5q131 0 201 -70.5t70 -193.5v-113h145v-102h-145v-245z" />
    <glyph glyph-name="uni0535" unicode="&#x535;" horiz-adv-x="709" 
d="M88 714h121v-125h433v-102h-433v-217q0 -91 38 -134.5t116 -43.5q80 0 117 44t37 141h122q0 -141 -67.5 -214t-205.5 -73q-92 0 -154 33t-93 92t-31 137v462z" />
    <glyph glyph-name="uni0536" unicode="&#x536;" horiz-adv-x="684" 
d="M308 288q-71 0 -126 28t-86.5 78t-31.5 115t32.5 114.5t91.5 77.5t138 28q121 0 189.5 -64t68.5 -171v-2v-2q-2 -100 -45 -178.5t-110 -129.5h97q60 0 91.5 -26.5t31.5 -92.5v-63h-105v30q0 29 -14 39.5t-49 10.5h-308v-80h-103v238h103v-56h8q70 0 131.5 32t102.5 89
q-51 -15 -107 -15zM324 386q71 0 104.5 33.5t33.5 89.5t-33 89t-104 33q-69 0 -104 -31.5t-35 -90.5q0 -57 34 -90t104 -33z" />
    <glyph glyph-name="uni0537" unicode="&#x537;" horiz-adv-x="631" 
d="M378 0h-285v714h122v-215h345v-102h-345v-295h178q84 0 129 -41.5t45 -120.5v-85h-122v73q0 72 -67 72z" />
    <glyph glyph-name="uni0538" unicode="&#x538;" horiz-adv-x="709" 
d="M88 0v462q0 78 31 137t93 92t154 33q138 0 205.5 -73t67.5 -214h-122q0 97 -37 141t-117 44q-78 0 -116 -43t-38 -135v-342h433v-102h-554z" />
    <glyph glyph-name="uni0539" unicode="&#x539;" horiz-adv-x="881" 
d="M88 0v420q0 90 38 158.5t111.5 107t179.5 38.5q145 0 227 -59t98 -171h127v-102h-123q0 -127 -57.5 -190.5t-152.5 -63.5q-92 0 -147 49.5t-55 130.5q0 85 56.5 130.5t165.5 45.5h63q-14 66 -63 97t-141 31q-99 0 -152.5 -52t-53.5 -149v-421h-121zM624 392h-67
q-44 0 -70.5 -18t-26.5 -55q0 -35 18 -57t59 -22t64 32t23 120z" />
    <glyph glyph-name="uni053A" unicode="&#x53a;" horiz-adv-x="769" 
d="M347 394q-160 0 -160 -156q0 -72 37.5 -109t107.5 -37q151 0 151 198v104h-136zM332 497h151v217h121v-217h139v-103h-139v-106q0 -149 -69 -223.5t-202 -74.5q-127 0 -199.5 66.5t-72.5 181.5q0 70 31.5 129t92 94.5t147.5 35.5z" />
    <glyph glyph-name="uni053B" unicode="&#x53b;" horiz-adv-x="718" 
d="M93 714h122v-200q0 -28 -1.5 -56t-5.5 -57h7v-1q27 60 81 89t128 29q112 0 176 -68t64 -183v-52h-122v44q0 157 -148 157q-79 0 -129 -44t-50 -131v-241h-122v714z" />
    <glyph glyph-name="uni053C" unicode="&#x53c;" horiz-adv-x="433" 
d="M93 0v714h122v-612h195v-102h-317z" />
    <glyph glyph-name="uni053D" unicode="&#x53d;" horiz-adv-x="876" 
d="M93 0v714h122v-166h293v-156q0 -70 24 -102.5t76 -32.5q51 0 74.5 31.5t23.5 103.5v156h122v-162q0 -112 -56.5 -171.5t-163.5 -59.5q-222 0 -222 223v67h-171v-445h-122z" />
    <glyph glyph-name="uni053E" unicode="&#x53e;" horiz-adv-x="727" 
d="M64 265q0 77 38 148t102 129q-60 24 -92.5 47.5t-45.5 53t-13 71.5h121q0 -22 8.5 -37.5t35 -30t80.5 -33.5q82 52 178 81.5t191 29.5v-102q-62 0 -123.5 -14t-117.5 -40q90 -38 142 -84t74.5 -100.5t22.5 -119.5q0 -82 -38.5 -143.5t-106.5 -96t-159 -34.5t-158 34.5
t-103 96.5t-36 144zM187 266q0 -80 45.5 -127t128.5 -47q85 0 133 46t48 126q0 79 -52 137.5t-172 100.5q-59 -46 -95 -106.5t-36 -129.5z" />
    <glyph glyph-name="uni053F" unicode="&#x53f;" horiz-adv-x="729" 
d="M640 0h-122v197q0 20 1.5 52.5t4.5 61.5h-3q-32 -49 -87 -77t-127 -28q-107 0 -168.5 59.5t-61.5 184.5v264h122v-236q0 -85 34.5 -127.5t109.5 -42.5q95 0 135 58.5t40 164.5v71h122v-602z" />
    <glyph glyph-name="uni0540" unicode="&#x540;" horiz-adv-x="611" 
d="M39 97l98 400q29 116 91 171.5t176 55.5q50 0 95 -15t85 -48l-67 -85q-24 21 -52.5 33.5t-60.5 12.5q-44 0 -71.5 -14.5t-45 -47.5t-31.5 -89l-75 -301l190 -45q97 -24 135.5 -66t38.5 -108v-61h-122v44q0 73 -79 92l-188 44v-2z" />
    <glyph glyph-name="uni0541" unicode="&#x541;" horiz-adv-x="661" 
d="M163 122q0 -22 17.5 -33t49.5 -11q39 0 73 16.5t61 45.5q-74 29 -127 29q-74 0 -74 -47zM174 511q0 -57 33.5 -87.5t95.5 -30.5q40 0 83.5 8t74.5 21v25q0 82 -36.5 131.5t-112.5 49.5q-68 0 -103 -30.5t-35 -86.5zM624 -17q-40 33 -81 60.5t-81 49.5q-45 -48 -104 -75.5
t-128 -27.5q-94 0 -137.5 33.5t-43.5 98.5t50 100t136 35q96 0 183 -34q22 49 33 109q-37 -13 -77.5 -20.5t-88.5 -7.5q-67 0 -120 25t-83 71t-30 111q0 63 32.5 111.5t90.5 76t135 27.5q130 0 201.5 -78t71.5 -217q0 -73 -16.5 -139t-46.5 -120q49 -30 104 -74v-115z" />
    <glyph glyph-name="uni0542" unicode="&#x542;" horiz-adv-x="774" 
d="M745 102v-102h-287v445q0 95 -37 136t-105 41q-72 0 -106.5 -44.5t-34.5 -139.5h-122q0 133 67 209.5t199 76.5q124 0 192.5 -70.5t68.5 -193.5v-358h165z" />
    <glyph glyph-name="uni0543" unicode="&#x543;" horiz-adv-x="709" 
d="M647 622q-52 -4 -100 -16t-91 -31q72 -36 112 -95.5t56 -143.5t16 -195v-141h-390q-76 0 -118.5 23t-60 62t-17.5 87q0 92 41.5 187t118.5 173l-154 28v103l257 -46q68 45 151 73.5t179 33.5v-102zM272 102h245v84q0 134 -38 210.5t-137 108.5q-78 -63 -121.5 -145.5
t-43.5 -165.5q0 -50 22 -71t73 -21z" />
    <glyph glyph-name="uni0544" unicode="&#x544;" horiz-adv-x="810" 
d="M367 -10q-93 0 -155 33.5t-93 93t-31 135.5v462h121v-441q0 -93 38 -137t117 -44q76 0 117 41t41 136v445h267v-102h-145v-358q0 -123 -72.5 -193.5t-204.5 -70.5z" />
    <glyph glyph-name="uni0545" unicode="&#x545;" horiz-adv-x="632" 
d="M557 548q0 -72 -45 -116.5t-121 -55.5v-3q94 -10 141 -54.5t47 -117.5q0 -93 -68 -152t-199 -59q-70 0 -133 10.5t-104 28.5v110q27 -14 65 -25t79 -16.5t78 -5.5q80 0 118 31.5t38 85.5q0 39 -20.5 63.5t-69.5 36t-133 11.5h-187v102h166q122 0 174.5 28t52.5 80
q0 43 -30.5 67.5t-97.5 24.5q-54 0 -100.5 -16t-81.5 -45l-54 86q46 35 112 56t149 21q107 0 165.5 -48.5t58.5 -127.5z" />
    <glyph glyph-name="uni0546" unicode="&#x546;" horiz-adv-x="655" 
d="M330 -10q-124 0 -194.5 70.5t-70.5 193.5q0 88 28.5 169.5t72.5 145.5q-56 7 -84.5 44t-28.5 112v35h121v-36q0 -53 20 -70.5t63 -17.5h58l8 -15q-33 -41 -64.5 -102t-52 -130.5t-20.5 -134.5q0 -76 37 -119t107 -43q73 0 106 39.5t33 113.5v174h121v-182
q0 -118 -69.5 -182.5t-190.5 -64.5z" />
    <glyph glyph-name="uni0547" unicode="&#x547;" horiz-adv-x="671" 
d="M82 724l521 -82l-13 -101l-199 31q-61 -40 -107 -91t-71 -107.5t-25 -112.5q0 -78 40 -123.5t109 -45.5q78 0 112 42.5t34 118.5v35h122v-42q0 -118 -70.5 -187t-197.5 -69q-83 0 -144 33t-94 94t-33 144q0 60 24 122t66.5 117t96.5 94l-184 29z" />
    <glyph glyph-name="uni0548" unicode="&#x548;" horiz-adv-x="731" 
d="M87 0v462q0 78 32 137t94.5 92t154.5 33q133 0 204 -71t71 -193v-460h-122v443q0 96 -40 137.5t-117 41.5t-116 -43t-39 -134v-445h-122z" />
    <glyph glyph-name="uni0549" unicode="&#x549;" horiz-adv-x="642" 
d="M548 -1q-86 2 -173 31t-170 80.5t-156 118.5l69 81q75 -70 168 -123q87 72 133 137t46 138t-36 117t-107 44q-78 0 -110 -40.5t-32 -105.5v-10h-122v18q0 109 69 174.5t195 65.5q127 0 196 -70.5t69 -188.5q0 -89 -55.5 -173t-143.5 -155q41 -16 81.5 -25.5t78.5 -10.5
v-103z" />
    <glyph glyph-name="uni054A" unicode="&#x54a;" horiz-adv-x="833" 
d="M76 330v132q0 78 38.5 137t114 92t186.5 33q160 0 245 -71t85 -193v-460h-121v442q0 81 -39 123t-113 53v-452h-123v452q-151 -22 -151 -174v-114h-122z" />
    <glyph glyph-name="uni054B" unicode="&#x54b;" horiz-adv-x="659" 
d="M334 245q62 45 97.5 105t35.5 132q0 74 -36.5 109t-103.5 35q-69 0 -105 -35t-36 -98q0 -40 16.5 -73.5t54.5 -63.5q35 -27 53 -52t24 -59zM195 182q7 0 24 5t25 10q-1 23 -14 47.5t-56 54.5q-61 42 -86 87.5t-25 109.5q0 70 33 121t92.5 79t138.5 28q118 0 190 -59.5
t72 -176.5q0 -58 -19.5 -108.5t-62.5 -99t-116 -98.5h109q60 0 91 -26.5t31 -92.5v-63h-113v30q0 29 -14.5 39.5t-48.5 10.5h-291v-80h-103v230h103v-48h40z" />
    <glyph glyph-name="uni054C" unicode="&#x54c;" horiz-adv-x="813" 
d="M88 0v462q0 78 31 137t93 92t154 33q134 0 203.5 -71t69.5 -193v-113h145v-102h-145v-245h-122v442q0 97 -39 138.5t-115 41.5q-78 0 -116 -43t-38 -135v-444h-121z" />
    <glyph glyph-name="uni054D" unicode="&#x54d;" horiz-adv-x="731" 
d="M644 714v-462q0 -78 -32 -137t-95 -92t-155 -33q-133 0 -203.5 71t-70.5 193v460h121v-443q0 -96 40.5 -137.5t116.5 -41.5q78 0 117 43t39 134v445h122z" />
    <glyph glyph-name="uni054E" unicode="&#x54e;" horiz-adv-x="805" 
d="M777 102v-102h-279v139q0 20 1.5 52.5t4.5 61.5h-5q-32 -47 -85 -73.5t-123 -26.5q-108 0 -169 59.5t-61 184.5v75h122v-47q0 -85 34 -127.5t110 -42.5q95 0 133 58.5t38 164.5v236h121v-612h158z" />
    <glyph glyph-name="uni054F" unicode="&#x54f;" horiz-adv-x="585" 
d="M534 194q0 -96 -70 -150t-192 -54q-64 0 -120 13t-103 34v111q62 -29 118.5 -42.5t102.5 -13.5q74 0 109 25t35 71q0 29 -12.5 50t-46 39.5t-96.5 40.5q-70 25 -114.5 48.5t-66 59.5t-21.5 100q0 94 69 146t183 52q101 0 210 -47l-31 -99q-55 25 -99.5 34.5t-84.5 9.5
q-64 0 -96 -24t-32 -67q0 -29 12.5 -48t44 -35.5t88.5 -35.5q109 -35 161 -84t52 -134z" />
    <glyph glyph-name="uni0550" unicode="&#x550;" horiz-adv-x="674" 
d="M88 0v462q0 78 30.5 137t90 92t147.5 33q134 0 199 -73t65 -214h-121q0 97 -35 141t-111 44q-73 0 -108.5 -43t-35.5 -135v-444h-121z" />
    <glyph glyph-name="uni0551" unicode="&#x551;" horiz-adv-x="659" 
d="M604 205q0 -102 -80.5 -158.5t-221.5 -56.5q-61 0 -121 14t-102 33v109q57 -27 113.5 -40.5t106.5 -13.5q89 0 135.5 29.5t46.5 84.5q0 54 -46 85t-131 47l-209 -59l-31 92l96 26q-55 28 -79.5 65t-24.5 88q0 54 33 93t90 60t131 21q122 0 188.5 -46.5t66.5 -127.5
q0 -54 -34 -91t-94 -62v-4q82 -20 124.5 -71t42.5 -117zM177 543q0 -24 10.5 -42t38.5 -33.5t79 -31.5l24 6q55 15 84.5 39.5t29.5 61.5q0 40 -36.5 61.5t-96.5 21.5q-59 0 -96 -21.5t-37 -61.5z" />
    <glyph glyph-name="uni0552" unicode="&#x552;" horiz-adv-x="619" 
d="M93 0v714h122v-166h42q52 0 83.5 -11t56 -41.5t54.5 -89.5q25 -50 41 -73t30 -29.5t33 -6.5h24v-102h-37q-57 0 -95.5 27.5t-70.5 91.5q-28 58 -46 86t-36 37t-46 9h-33v-446h-122z" />
    <glyph glyph-name="uni0553" unicode="&#x553;" horiz-adv-x="831" 
d="M471 717v-81q111 -2 180 -37t101.5 -93.5t32.5 -133.5q0 -51 -17.5 -99t-54.5 -86.5t-97 -61.5t-145 -25v-103h-110v103q-86 2 -146 25t-97 61t-53.5 85.5t-16.5 98.5q0 74 32 133t101 94.5t180 38.5v81h110zM361 540q-105 -4 -151.5 -48.5t-46.5 -120.5q0 -81 49 -126.5
t149 -48.5v344zM471 540v-344q100 3 149 48.5t49 128.5q0 76 -46 119.5t-152 47.5z" />
    <glyph glyph-name="uni0554" unicode="&#x554;" horiz-adv-x="639" 
d="M102 0v130h-91v102h91v199q0 145 67.5 219t179.5 74q72 0 124.5 -26.5t80.5 -73t28 -108.5q0 -96 -65.5 -149t-193.5 -53h-99v-82h358v-102h-358v-130h-122zM224 416h96q63 0 101 25t38 75q0 46 -25.5 76t-84.5 30q-65 0 -95 -45t-30 -161z" />
    <glyph glyph-name="uni0555" unicode="&#x555;" horiz-adv-x="787" 
d="M727 358q0 -110 -36 -193t-110 -129t-188 -46q-113 0 -187.5 46t-110.5 129t-36 194q0 110 36.5 192.5t111.5 128t188 45.5q111 0 185 -45t110.5 -127.5t36.5 -194.5zM188 358q0 -122 49 -194t156 -72q109 0 157.5 72t48.5 194q0 124 -49 194.5t-154 70.5
q-109 0 -158.5 -71.5t-49.5 -193.5z" />
    <glyph glyph-name="uni0556" unicode="&#x556;" horiz-adv-x="747" 
d="M361 -10q-89 0 -165.5 13.5t-145.5 42.5v110q66 -30 129.5 -45.5t122.5 -18.5v245q-88 11 -140 36.5t-74 64.5t-22 92q0 83 61 133.5t167 50.5h129v-290q103 -12 162.5 -38t85 -68t25.5 -101q0 -116 -86 -171.5t-249 -55.5zM302 435v177h-18q-53 0 -76 -23t-23 -60
q0 -41 26.5 -63.5t90.5 -30.5zM423 92q77 2 115.5 35t38.5 88q0 38 -19.5 60.5t-54.5 33.5t-80 17v-234z" />
    <glyph glyph-name="uni0559" unicode="&#x559;" horiz-adv-x="225" 
d="M180 436q-82 1 -122.5 42t-40.5 105q0 59 33.5 102t96.5 75l44 -59q-37 -25 -52.5 -47.5t-15.5 -52.5q0 -62 57 -62v-103z" />
    <glyph glyph-name="uni055A" unicode="&#x55a;" horiz-adv-x="225" 
d="M46 760q81 -1 121 -42t40 -105q0 -59 -33 -102t-96 -75l-44 60q37 23 52.5 46t15.5 54q0 29 -15 45t-41 16v103z" />
    <glyph glyph-name="uni055B" unicode="&#x55b;" horiz-adv-x="253" 
d="M192 814l9 -13q-12 -49 -30 -100t-41 -106h-87q19 74 31 129t16 90h102z" />
    <glyph glyph-name="uni055C" unicode="&#x55c;" horiz-adv-x="298" 
d="M33 603q0 27 4.5 47t18.5 37.5t44 36.5q39 24 51 38t12 40v12h102q0 -37 -5.5 -59t-21 -38.5t-46.5 -34.5q-36 -21 -46 -35.5t-10 -31.5v-12h-103z" />
    <glyph glyph-name="uni055D" unicode="&#x55d;" horiz-adv-x="253" 
d="M61 814h102q5 -38 16 -90t31 -129h-87q-24 57 -41 106.5t-29 99.5z" />
    <glyph glyph-name="uni055E" unicode="&#x55e;" horiz-adv-x="441" 
d="M55 609q3 63 29 112t71 77.5t103 28.5q60 0 96 -28.5t36 -80.5q0 -51 -37.5 -80.5t-111.5 -30.5v76q31 1 45 10t14 22q0 14 -13 22t-34 8q-45 0 -72 -31.5t-31 -104.5h-95z" />
    <glyph glyph-name="uni055F" unicode="&#x55f;" horiz-adv-x="407" 
d="M181 604q-139 0 -139 118q0 56 39 89.5t97 33.5q38 0 82 -15l-24 -79q-17 7 -29.5 9t-19.5 2q-50 0 -50 -35q0 -23 13 -31.5t40 -8.5h197v-83h-206z" />
    <glyph glyph-name="uni0561" unicode="&#x561;" horiz-adv-x="953" 
d="M262 -9q-86 0 -133.5 46t-47.5 136v324h121v-298q0 -55 25.5 -83t66.5 -28q56 0 88 42.5t32 129.5v237h120v-298q0 -55 26.5 -83t67.5 -28q54 0 86 43t32 129v237h120v-497h-93l-15 72h-7q-19 -34 -57.5 -57.5t-97.5 -23.5q-56 0 -97.5 21.5t-62.5 63.5h-6
q-21 -37 -66.5 -61t-101.5 -24z" />
    <glyph glyph-name="uni0562" unicode="&#x562;" 
d="M86 -238v735h94l15 -75h7q20 37 59 61t98 24q86 0 134.5 -47.5t48.5 -138.5v-126h-120v101q0 58 -25.5 86t-69.5 28q-57 0 -89 -44.5t-32 -132.5v-141h352v-92h-352v-238h-120z" />
    <glyph glyph-name="uni0563" unicode="&#x563;" horiz-adv-x="683" 
d="M414 -238v215q0 43 6 99h-7q-45 -85 -152 -85q-97 0 -150 69t-53 187q0 119 54 189.5t155 70.5q52 0 90.5 -22t62.5 -61h5l15 73h94v-405h144v-92h-144v-238h-120zM293 87q60 0 90.5 39t30.5 121v8q0 76 -28.5 115.5t-90.5 39.5q-55 0 -85 -42t-30 -122q0 -159 113 -159z
" />
    <glyph glyph-name="uni0564" unicode="&#x564;" horiz-adv-x="690" 
d="M422 -238v534q0 58 -25.5 86t-69.5 28q-59 0 -90 -44.5t-31 -132.5v-233h-120v497h94l15 -75h7q20 37 58.5 61t98.5 24q86 0 134.5 -47.5t48.5 -138.5v-229h142v-92h-142v-238h-120z" />
    <glyph glyph-name="uni0565" unicode="&#x565;" 
d="M538 309v-309h-95l-14 75h-7q-20 -37 -59.5 -61t-97.5 -24q-86 0 -135 48t-49 139v583h121v-263h353v-92h-353v-204q0 -57 25 -85.5t69 -28.5q57 0 89.5 44.5t32.5 132.5v45h120z" />
    <glyph glyph-name="uni0566" unicode="&#x566;" horiz-adv-x="627" 
d="M414 -238v215q0 43 6 99h-7q-45 -85 -152 -85q-97 0 -150 69t-53 187q0 119 54 189.5t155 70.5q52 0 90.5 -22t62.5 -61h5l15 73h94v-643h133v-92h-253zM293 87q60 0 90.5 39t30.5 121v8q0 76 -28.5 115.5t-90.5 39.5q-55 0 -85 -42t-30 -122q0 -159 113 -159z" />
    <glyph glyph-name="uni0567" unicode="&#x567;" horiz-adv-x="499" 
d="M86 0v760h120v-263h248v-92h-248v-313h102q82 0 116 -33t34 -113v-32h-120v11q0 41 -12.5 58t-49.5 17h-190z" />
    <glyph glyph-name="uni0568" unicode="&#x568;" 
d="M86 -238v735h94l15 -75h7q20 37 59 61t98 24q86 0 134.5 -47.5t48.5 -138.5v-321h-120v296q0 58 -25.5 86t-69.5 28q-57 0 -89 -44.5t-32 -132.5v-379h352v-92h-472z" />
    <glyph glyph-name="uni0569" unicode="&#x569;" horiz-adv-x="719" 
d="M86 -238v735h94l15 -75h6q24 39 72.5 62t107.5 23q122 0 186 -61.5t72 -175.5q22 -5 43.5 -12t40.5 -15l-27 -82q-26 10 -59 19q-12 -89 -61 -139.5t-135 -50.5q-78 0 -124 41.5t-46 107.5q0 72 51 112.5t137 40.5q27 0 55 -2q-9 64 -45 92t-98 28q-74 0 -119.5 -38.5
t-45.5 -115.5v-494h-120zM379 138q0 -59 63 -59q40 0 56.5 27.5t18.5 93.5q-31 3 -57 3q-38 0 -59.5 -17t-21.5 -48z" />
    <glyph glyph-name="uni056A" unicode="&#x56a;" horiz-adv-x="648" 
d="M530 244q0 -76 -24.5 -133.5t-76 -89.5t-131.5 -32q-121 0 -180.5 69.5t-59.5 184.5q0 125 67 194.5t192 69.5q48 0 93 -6v259h120v-285q59 -17 121 -47l-26 -92q-46 22 -95 38v-130zM317 410q-70 0 -103 -42t-33 -122q0 -73 28 -116.5t89 -43.5q62 0 87 44t25 117v156
q-48 7 -93 7z" />
    <glyph glyph-name="uni056B" unicode="&#x56b;" 
d="M206 760v-247q0 -46 -6 -91h7q19 37 55.5 61t96.5 24q87 0 135 -47.5t48 -138.5v-321h-120v296q0 58 -25 86t-70 28q-58 0 -89.5 -44.5t-31.5 -132.5v-471h-120v998h120z" />
    <glyph glyph-name="uni056C" unicode="&#x56c;" horiz-adv-x="299" 
d="M86 -238v736h120v-644h123v-92h-243z" />
    <glyph glyph-name="uni056D" unicode="&#x56d;" horiz-adv-x="955" 
d="M748 497h120v-497h-94l-15 75h-7q-20 -37 -58 -61t-97 -24q-85 0 -133.5 48t-48.5 139v119q0 58 -24.5 86t-68.5 28q-56 0 -86 -44.5t-30 -132.5v-471h-120v998h120v-247q0 -46 -6 -91h7q19 37 54 61t93 24q86 0 134 -47.5t48 -138.5v-120q0 -57 24.5 -85.5t67.5 -28.5
q57 0 88.5 44.5t31.5 132.5v233z" />
    <glyph glyph-name="uni056E" unicode="&#x56e;" horiz-adv-x="616" 
d="M204 644l159 126l62 -80l-65 -52q60 -71 101 -139h136v-91h-90q35 -86 35 -165q0 -118 -65.5 -185.5t-178.5 -67.5q-73 0 -127 32t-83.5 88t-29.5 129q0 71 29.5 130t87.5 94.5t142 35.5h9q-49 72 -122 145zM335 408q-79 0 -116.5 -49t-37.5 -125q0 -68 29.5 -107.5
t88.5 -39.5q55 0 87.5 37.5t32.5 114.5q0 81 -41 169h-43z" />
    <glyph glyph-name="uni056F" unicode="&#x56f;" 
d="M538 -238h-120v239q0 19 1.5 37t5.5 37h-7q-20 -37 -57.5 -61t-95.5 -24q-86 0 -135 48t-49 139v583h121v-559q0 -57 25 -85.5t69 -28.5q57 0 89.5 44.5t32.5 132.5v232h120v-734z" />
    <glyph glyph-name="uni0570" unicode="&#x570;" horiz-adv-x="587" 
d="M397 0v129q0 70 -26.5 101.5t-77.5 31.5q-39 0 -68.5 -17.5t-46.5 -66.5l-117 20v77q0 166 40.5 275.5t108.5 163.5t151 54q53 0 94 -17t78 -52l-72 -78q-45 49 -100 49q-46 0 -87 -39t-67 -122t-26 -215l5 -1q19 28 54 47.5t86 19.5q89 0 140 -53t51 -157v-150h-120z
" />
    <glyph glyph-name="uni0571" unicode="&#x571;" horiz-adv-x="641" 
d="M445 0v0h-1l-15 57h-2q-25 -25 -72.5 -46t-112.5 -21q-89 0 -141.5 47.5t-52.5 140.5q0 53 19.5 98t67 89.5t130.5 95.5q57 34 85.5 54t38 31.5t9.5 19.5q0 6 -9 11.5t-37 11.5t-84 13q-59 8 -94.5 17t-53.5 25.5t-23.5 44t-5.5 71.5h102q0 -22 10.5 -35.5t42 -21.5
t95.5 -15q82 -9 124 -22.5t57 -33t15 -45.5q0 -21 -6 -38.5t-25 -38t-60 -49.5l98 -369h78v-92h-177zM170 186q0 -51 24.5 -75t79.5 -24q37 0 73 11.5t63 30.5l-69 261l-5 -3q-86 -55 -126 -102t-40 -99z" />
    <glyph glyph-name="uni0572" unicode="&#x572;" horiz-adv-x="633" 
d="M422 -238v534q0 58 -25.5 86t-70.5 28q-58 0 -89 -44.5t-31 -132.5v-233h-120v497h94l15 -75h7q20 37 58 61t97 24q88 0 136.5 -47.5t48.5 -138.5v-467h132v-92h-252z" />
    <glyph glyph-name="uni0573" unicode="&#x573;" horiz-adv-x="603" 
d="M538 189v-189h-95l-15 70h-6q-21 -35 -59.5 -57.5t-95.5 -22.5q-91 0 -139.5 61t-48.5 186q0 48 4 92.5t12 84.5q-34 1 -73 2v92q52 -1 97 -3q28 86 72.5 144.5t97 88.5t107.5 30q48 0 86 -13.5t72 -41.5l-65 -81q-41 39 -93 39q-42 0 -84.5 -46t-72.5 -130
q91 -11 149.5 -34.5t91 -60.5t45.5 -89t13 -122zM199 237q1 -83 26.5 -116.5t72.5 -33.5q56 0 87.5 26.5t31.5 92.5q0 56 -14 95.5t-57 65t-131 37.5q-7 -37 -11.5 -79t-4.5 -88z" />
    <glyph glyph-name="uni0574" unicode="&#x574;" horiz-adv-x="632" 
d="M538 365v-365h-95l-14 75h-7q-20 -37 -59.5 -61t-97.5 -24q-86 0 -135 48t-49 139v320h121v-296q0 -57 25 -85.5t69 -28.5q57 0 89.5 44.5t32.5 132.5v101q0 32 -13 64t-47 70q-34 37 -48.5 68t-14.5 53q0 40 18 74t56.5 54t98.5 20q70 0 112.5 -40.5t42.5 -116.5h-113
q0 29 -11.5 44.5t-37.5 15.5q-21 0 -33 -12t-12 -30q0 -23 14.5 -43t42.5 -51q37 -41 51 -79t14 -91z" />
    <glyph glyph-name="uni0575" unicode="&#x575;" horiz-adv-x="295" 
d="M86 157v340h120v-340q0 -7 2.5 -30t7 -50t12.5 -47q21 -58 21 -105q0 -78 -47 -124.5t-126 -46.5h-36v92h15q30 0 51.5 18.5t21.5 52.5q0 24 -5 48.5t-17 55.5q-11 28 -15.5 60.5t-4.5 75.5z" />
    <glyph glyph-name="uni0576" unicode="&#x576;" horiz-adv-x="623" 
d="M284 554v-18q-51 -87 -76.5 -164t-25.5 -149q0 -74 28.5 -105t80.5 -31q58 0 91.5 44.5t33.5 132.5v233h120v-497h-94l-15 75h-7q-20 -37 -59 -61t-98 -24q-96 0 -150 56t-54 158q0 72 29 145t82 151l-41 23q-33 18 -50.5 44.5t-17.5 54.5q0 39 16 74l31 65l99 -38
l-22 -40q-5 -10 -7.5 -20.5t-2.5 -20.5q0 -19 11.5 -32.5t39.5 -26.5z" />
    <glyph glyph-name="uni0577" unicode="&#x577;" horiz-adv-x="431" 
d="M402 -238h-313q-39 0 -55 14.5t-16 43.5q0 20 9 40.5t33 52.5l140 182q38 48 60 98t22 101q0 58 -27 87t-77 29q-35 0 -70.5 -8t-70.5 -25l-27 90q38 19 82 29.5t100 10.5q100 0 156.5 -55.5t56.5 -147.5q0 -75 -30.5 -136t-77.5 -119l-106 -132q-23 -28 -23 -46
q0 -8 5 -12.5t18 -4.5h211v-92z" />
    <glyph glyph-name="uni0578" unicode="&#x578;" 
d="M86 0v497h94l15 -75h7q20 37 59 61t98 24q86 0 134.5 -47.5t48.5 -138.5v-321h-120v296q0 58 -25.5 86t-69.5 28q-57 0 -89 -44.5t-32 -132.5v-233h-120z" />
    <glyph glyph-name="uni0579" unicode="&#x579;" horiz-adv-x="367" 
d="M-21 -180q0 20 8 41t26 55l181 346l-72 44q-35 22 -50 50t-15 57q0 47 24 84h116q-7 -13 -12.5 -32t-5.5 -38q0 -17 14 -32.5t35 -26.5l116 -63l-201 -380q-8 -17 -14 -31t-6 -23q0 -17 27 -17h188v-92h-287q-40 0 -56 14.5t-16 43.5z" />
    <glyph glyph-name="uni057A" unicode="&#x57a;" horiz-adv-x="953" 
d="M746 -238v217q0 25 2 45.5t6 44.5h-7q-19 -34 -55.5 -56t-95.5 -22q-116 0 -160 85h-7q-20 -38 -66 -61.5t-101 -23.5q-86 0 -133.5 46t-47.5 136v324h121v-298q0 -55 25.5 -83t66.5 -28q56 0 88 43t32 129v237h120v-298q0 -55 26.5 -83t67.5 -28q54 0 86 43t32 129v237
h120v-735h-120z" />
    <glyph glyph-name="uni057B" unicode="&#x57b;" horiz-adv-x="526" 
d="M245 -146h241v-92h-343q-75 0 -75 61q0 18 8.5 38.5t34.5 51.5l112 128q-10 20 -30.5 42t-62.5 49q-41 27 -62.5 65.5t-21.5 94.5q0 97 60 156t166 59q110 0 169 -56t59 -153q0 -70 -44.5 -136t-123.5 -152l-87 -95q-23 -26 -23 -44q0 -8 4.5 -12.5t18.5 -4.5zM222 187
q43 -34 62 -75q44 53 68.5 96.5t24.5 81.5q0 61 -27.5 90.5t-77.5 29.5t-78 -30.5t-28 -89.5q0 -33 13.5 -57t42.5 -46z" />
    <glyph glyph-name="uni057C" unicode="&#x57c;" horiz-adv-x="653" 
d="M488 92h147v-92h-275v80q32 38 49 71.5t24 67t7 72.5q0 59 -29 89t-81 30q-57 0 -90.5 -44.5t-33.5 -132.5v-233h-120v497h94l15 -75h7q20 37 59 61t98 24q96 0 150 -52t54 -142q0 -67 -18.5 -119t-56.5 -102z" />
    <glyph glyph-name="uni057D" unicode="&#x57d;" 
d="M538 497v-497h-95l-14 75h-7q-20 -37 -59.5 -61t-97.5 -24q-86 0 -135 48t-49 139v320h121v-296q0 -57 25 -85.5t69 -28.5q57 0 89.5 44.5t32.5 132.5v233h120z" />
    <glyph glyph-name="uni057E" unicode="&#x57e;" horiz-adv-x="630" 
d="M538 -146h123v-92h-243v239q0 19 1.5 37t5.5 37h-7q-20 -37 -57.5 -61t-95.5 -24q-86 0 -135 48t-49 139v320h121v-296q0 -57 25 -85.5t69 -28.5q57 0 89.5 44.5t32.5 132.5v496h120v-906z" />
    <glyph glyph-name="uni057F" unicode="&#x57f;" horiz-adv-x="956" 
d="M691 507q86 0 134.5 -47.5t48.5 -138.5v-321h-121v296q0 58 -25.5 86t-68.5 28q-58 0 -89.5 -44.5t-31.5 -132.5v-233h-95l-14 75h-7q-20 -37 -59.5 -61t-97.5 -24q-86 0 -135 48t-49 139v320h121v-296q0 -57 25 -85.5t69 -28.5q57 0 89.5 44.5t32.5 132.5v233h94l15 -75
h6q20 37 59.5 61t98.5 24z" />
    <glyph glyph-name="uni0580" unicode="&#x580;" 
d="M86 -238v735h94l15 -75h7q20 37 59 61t98 24q86 0 134.5 -47.5t48.5 -138.5v-321h-120v296q0 58 -25.5 86t-69.5 28q-57 0 -89 -44.5t-32 -132.5v-471h-120z" />
    <glyph glyph-name="uni0581" unicode="&#x581;" horiz-adv-x="621" 
d="M270 -247q-47 0 -86.5 8t-79.5 23v96q36 -16 76.5 -25.5t91.5 -9.5q78 0 110.5 29.5t32.5 80.5v25q0 22 1 44.5t5 51.5h-8q-44 -85 -152 -85q-95 0 -149 67t-54 188q0 124 55.5 192.5t153.5 68.5q52 0 90 -21t62 -59h6l15 70h95v-511q0 -115 -61 -174t-204 -59zM294 88
q64 0 92.5 43t28.5 117v7q0 73 -27.5 114t-92.5 41q-55 0 -84.5 -42t-29.5 -123q0 -80 28.5 -118.5t84.5 -38.5z" />
    <glyph glyph-name="uni0582" unicode="&#x582;" horiz-adv-x="368" 
d="M86 0v497h120v-405h146v-92h-266z" />
    <glyph glyph-name="uni0583" unicode="&#x583;" horiz-adv-x="956" 
d="M691 507q86 0 134.5 -47.5t48.5 -138.5v-321h-121v296q0 58 -25.5 86t-68.5 28q-58 0 -89.5 -44.5t-31.5 -132.5v-471h-120v239q0 18 2 36.5t5 37.5h-7q-20 -36 -57.5 -60.5t-95.5 -24.5q-86 0 -135 48t-49 139v320h121v-296q0 -57 25 -85.5t69 -28.5q57 0 89.5 44.5
t32.5 132.5v496h120v-239q0 -25 -1.5 -49.5t-5.5 -49.5h8q19 37 56 61t96 24z" />
    <glyph glyph-name="uni0584" unicode="&#x584;" horiz-adv-x="621" 
d="M86 -238v91h-70v92h70v552h94l15 -77h6q23 40 61.5 63.5t93.5 23.5q98 0 151.5 -69t53.5 -189q0 -77 -24.5 -135.5t-70.5 -90.5t-110 -32q-53 0 -90 21.5t-58 60.5h-8q3 -29 4.5 -53t1.5 -47v-28h335v-92h-335v-91h-120zM324 88q115 0 115 161q0 77 -29 119t-82 42
q-63 0 -92 -40.5t-29 -116.5v-7q0 -84 30 -121t87 -37z" />
    <glyph glyph-name="uni0585" unicode="&#x585;" horiz-adv-x="603" 
d="M304 -9q-76 0 -131 33t-85 90.5t-30 133.5q0 77 30.5 135.5t85.5 91t129 32.5q75 0 129 -33.5t83 -91.5t29 -134t-29 -134t-83 -90.5t-128 -32.5zM302 88q62 0 91 43.5t29 117.5q0 76 -29 118.5t-91 42.5q-60 0 -90.5 -41t-30.5 -120q0 -74 29.5 -117.5t91.5 -43.5z" />
    <glyph glyph-name="uni0586" unicode="&#x586;" horiz-adv-x="707" 
d="M406 410q135 -21 194 -72.5t59 -140.5q0 -59 -31 -104.5t-88 -72t-134 -29.5v-229h-116v229q-64 5 -129 19.5t-117 34.5v102q65 -26 130 -44.5t116 -19.5v246q-122 24 -178.5 71t-56.5 126q0 86 74.5 137t206.5 51h70v-304zM175 527q0 -37 29 -65t85 -40v200
q-49 0 -81.5 -26t-32.5 -69zM406 83q68 1 100 32.5t32 80.5q0 46 -33.5 79t-98.5 42v-234z" />
    <glyph glyph-name="uni0587" unicode="&#x587;" horiz-adv-x="672" 
d="M266 -10q-88 0 -136.5 48t-48.5 139v583h121v-559q0 -57 25 -85.5t70 -28.5q59 0 90 44.5t31 132.5v233h120v-405h129v-92h-233l-14 75h-2q-20 -37 -56.5 -61t-95.5 -24z" />
    <glyph glyph-name="uni0589" unicode="&#x589;" horiz-adv-x="270" 
d="M64 435q0 37 20 54t51 17t51 -17t20 -54t-20 -54t-51 -17t-51 17t-20 54zM64 59q0 38 20 54.5t51 16.5t51 -16.5t20 -54.5q0 -37 -20 -54t-51 -17t-51 17t-20 54z" />
    <glyph glyph-name="uni058A" unicode="&#x58a;" horiz-adv-x="435" 
d="M198 190q-80 0 -116.5 39t-36.5 123h95q0 -36 19 -51t67 -15q70 0 164 19v-81q-39 -16 -90.5 -25t-101.5 -9z" />
    <glyph glyph-name="uni058F" unicode="&#x58f;" horiz-adv-x="747" 
d="M345 281h132v66h-132v76h132v47q0 154 -151 154q-78 0 -114.5 -44.5t-36.5 -141.5h-122q0 133 68.5 209.5t207.5 76.5q131 0 200 -71t69 -193v-37h132v-76h-132v-66h132v-77h-132v-204h-121v204h-132v77z" />
    <glyph glyph-name="hyphen" unicode="-" horiz-adv-x="322" 
d="M34 215v106h254v-106h-254z" />
    <glyph glyph-name="uni2010" unicode="&#x2010;" horiz-adv-x="322" 
d="M34 215v106h254v-106h-254z" />
    <glyph glyph-name="uni00A0" unicode="&#xa0;" horiz-adv-x="260" 
 />
    <glyph glyph-name="uni058D" unicode="&#x58d;" horiz-adv-x="817" 
d="M408 -10q-77 0 -135 52q-51 4 -91.5 29t-65.5 65t-27 90q-24 26 -38 60t-14 71q0 72 52 130q1 49 25.5 89.5t66 66t94.5 30.5q26 24 60.5 37.5t72.5 13.5q80 0 135 -52q51 -4 92 -28.5t66 -65t27 -90.5q24 -26 38 -60t14 -71q0 -36 -13.5 -69t-38.5 -61q-2 -49 -26 -90
t-65.5 -66t-93.5 -30q-27 -24 -61.5 -37.5t-73.5 -13.5zM355 391q-12 21 -17.5 43t-5.5 45q0 64 38 115.5t102 69.5q-29 17 -63 17q-41 0 -73.5 -20.5t-52 -55t-19.5 -76.5q0 -47 25 -84t66 -54zM396 424q20 56 70.5 92t114.5 36q46 0 86 -20q-15 43 -52.5 70t-81.5 27
q-40 0 -73.5 -20t-54 -54.5t-20.5 -78.5q0 -13 2.5 -26.5t8.5 -25.5zM289 328q33 0 62 15q-61 19 -101 70t-40 116q0 47 22 89q-41 -18 -66 -55t-25 -83q0 -41 20 -75.5t53.5 -55.5t74.5 -21zM716 301q6 13 8.5 27.5t2.5 28.5q0 41 -19.5 75t-53 54t-74.5 20q-46 0 -83 -27
t-52 -70q40 20 87 20q61 0 112 -34.5t72 -93.5zM237 208q47 0 84 27t51 70q-39 -20 -87 -20q-61 0 -111.5 34.5t-72.5 92.5q-11 -25 -11 -55q0 -41 19.5 -75t53 -54t74.5 -20zM585 97q38 14 64.5 52t26.5 85q0 41 -20 75.5t-53.5 55.5t-74.5 21q-34 0 -62 -15
q62 -19 102 -70t40 -116q0 -23 -6 -46t-17 -42zM409 33q40 0 72.5 20.5t52 55t19.5 76.5q0 47 -25.5 84t-65.5 54q12 -21 17.5 -43t5.5 -45q0 -64 -38.5 -115.5t-101.5 -69.5q29 -17 64 -17zM285 85q40 0 73.5 20t54 54.5t20.5 78.5q0 27 -11 52q-20 -56 -71 -92t-114 -36
q-48 0 -86 20q15 -43 51.5 -70t82.5 -27z" />
    <glyph glyph-name="uni058E" unicode="&#x58e;" horiz-adv-x="818" 
d="M408 -10q-38 0 -72.5 13.5t-61.5 37.5q-52 5 -93.5 30t-66 66t-25.5 90q-25 28 -38.5 61t-13.5 69q0 37 14 71t38 60q2 50 27 90.5t66.5 65t91.5 28.5q27 25 61.5 38.5t72.5 13.5t73 -13.5t62 -37.5q53 -5 94 -30.5t65 -66t26 -89.5q52 -58 52 -130q0 -37 -14 -71
t-38 -60q-2 -50 -27 -90t-66 -65t-91 -29q-57 -52 -136 -52zM462 391q40 17 65.5 54t25.5 84q0 42 -19.5 76.5t-52 55t-72.5 20.5q-35 0 -64 -17q63 -18 101.5 -69.5t38.5 -115.5q0 -23 -5.5 -45t-17.5 -43zM422 424q5 12 7.5 25.5t2.5 26.5q0 44 -20 78.5t-53.5 54.5
t-73.5 20q-45 0 -82.5 -27t-52.5 -70q40 20 86 20q64 0 114.5 -36t71.5 -92zM528 328q41 0 74.5 21t53.5 55.5t20 75.5q0 46 -25 83t-66 55q11 -20 17 -42.5t6 -46.5q0 -65 -40 -116t-102 -70q28 -15 62 -15zM101 301q22 59 72.5 93.5t111.5 34.5q48 0 87 -20q-14 43 -51 70
t-84 27q-41 0 -74.5 -20t-53 -54t-19.5 -75q0 -29 11 -56zM580 208q41 0 74.5 20t53 54t19.5 75q0 30 -11 55q-21 -58 -72 -92.5t-112 -34.5q-47 0 -87 20q15 -43 52 -70t83 -27zM232 97q-22 41 -22 88q0 65 40 116t101 70q-29 15 -62 15q-41 0 -74.5 -21t-53.5 -55.5
t-20 -75.5q0 -47 26.5 -85t64.5 -52zM409 33q34 0 63 17q-64 18 -102 69.5t-38 115.5q0 23 5.5 45t17.5 43q-41 -17 -66 -54t-25 -84q0 -42 19.5 -76.5t52 -55t73.5 -20.5zM533 85q45 0 82 27t52 70q-40 -20 -86 -20q-64 0 -114.5 36t-70.5 92q-6 -12 -8.5 -25.5t-2.5 -26.5
q0 -44 20.5 -78.5t54 -54.5t73.5 -20z" />
    </font>
</defs>
</svg>
