<svg xmlns="http://www.w3.org/2000/svg" xmlns:xlink="http://www.w3.org/1999/xlink" width="690.806" height="501.069" viewBox="0 0 690.806 501.069">
  <defs>
    <linearGradient id="linear-gradient" x1="0.055" y1="0.253" x2="0.93" y2="0.896" gradientUnits="objectBoundingBox">
      <stop offset="0" stop-color="#ff6464"/>
      <stop offset="1" stop-color="#fc3b3b"/>
    </linearGradient>
    <linearGradient id="linear-gradient-5" x1="-7.584" y1="-7.98" x2="3.009" y2="3.132" gradientUnits="objectBoundingBox">
      <stop offset="0" stop-color="#6a71d1" stop-opacity="0"/>
      <stop offset="1" stop-color="#fff"/>
    </linearGradient>
    <linearGradient id="linear-gradient-6" x1="-5.121" y1="-5.404" x2="2.232" y2="2.32" xlink:href="#linear-gradient-5"/>
    <linearGradient id="linear-gradient-7" x1="-11.101" y1="-11.635" x2="4.204" y2="4.375" xlink:href="#linear-gradient-5"/>
    <linearGradient id="linear-gradient-8" x1="-10.599" y1="-11.124" x2="11.656" y2="12.181" xlink:href="#linear-gradient-5"/>
    <linearGradient id="linear-gradient-9" x1="-19.91" y1="-20.872" x2="2.345" y2="2.433" xlink:href="#linear-gradient-5"/>
    <linearGradient id="linear-gradient-10" x1="-6.276" y1="-6.596" x2="15.979" y2="16.708" xlink:href="#linear-gradient-5"/>
    <linearGradient id="linear-gradient-11" x1="-10.329" y1="-10.842" x2="11.926" y2="12.462" xlink:href="#linear-gradient-5"/>
    <linearGradient id="linear-gradient-12" x1="-9.958" y1="-10.451" x2="12.298" y2="12.855" xlink:href="#linear-gradient-5"/>
    <linearGradient id="linear-gradient-13" x1="-21.753" y1="-22.804" x2="0.502" y2="0.5" xlink:href="#linear-gradient-5"/>
    <linearGradient id="linear-gradient-14" x1="-21.752" y1="-22.803" x2="0.502" y2="0.501" xlink:href="#linear-gradient-5"/>
    <linearGradient id="linear-gradient-15" x1="-21.701" y1="-22.798" x2="0.502" y2="0.503" xlink:href="#linear-gradient-5"/>
    <linearGradient id="linear-gradient-16" x1="-21.752" y1="-22.803" x2="0.502" y2="0.502" xlink:href="#linear-gradient-5"/>
    <linearGradient id="linear-gradient-17" x1="-3.44" y1="-5.963" x2="1.335" y2="1.871" xlink:href="#linear-gradient-5"/>
    <linearGradient id="linear-gradient-18" x1="-3.44" y1="-5.964" x2="1.335" y2="1.87" xlink:href="#linear-gradient-5"/>
    <linearGradient id="linear-gradient-19" x1="-3.437" y1="-5.953" x2="1.335" y2="1.868" xlink:href="#linear-gradient-5"/>
    <linearGradient id="linear-gradient-20" x1="-3.436" y1="-5.953" x2="1.336" y2="1.869" xlink:href="#linear-gradient-5"/>
    <linearGradient id="linear-gradient-21" x1="-4.775" y1="-8.154" x2="2.093" y2="3.113" xlink:href="#linear-gradient-5"/>
    <linearGradient id="linear-gradient-22" x1="-0.682" y1="-1.439" x2="4.093" y2="6.396" xlink:href="#linear-gradient-5"/>
    <linearGradient id="linear-gradient-23" x1="-4.565" y1="-7.784" x2="5.443" y2="8.58" xlink:href="#linear-gradient-5"/>
    <linearGradient id="linear-gradient-24" x1="-5.853" y1="-9.889" x2="4.156" y2="6.476" xlink:href="#linear-gradient-5"/>
    <linearGradient id="linear-gradient-25" x1="-4.452" y1="-7.597" x2="5.556" y2="8.768" xlink:href="#linear-gradient-5"/>
    <linearGradient id="linear-gradient-26" x1="-10.91" y1="-18.157" x2="-0.901" y2="-1.793" xlink:href="#linear-gradient-5"/>
    <linearGradient id="linear-gradient-27" x1="-10.91" y1="-18.158" x2="-0.902" y2="-1.794" xlink:href="#linear-gradient-5"/>
    <linearGradient id="linear-gradient-28" x1="-10.934" y1="-18.229" x2="-0.906" y2="-1.802" xlink:href="#linear-gradient-5"/>
    <linearGradient id="linear-gradient-29" x1="-10.959" y1="-18.149" x2="-0.91" y2="-1.794" xlink:href="#linear-gradient-5"/>
    <linearGradient id="linear-gradient-30" x1="-3.537" y1="-3.572" x2="3.998" y2="4.028" xlink:href="#linear-gradient-5"/>
    <linearGradient id="linear-gradient-31" x1="-5.146" y1="-5.207" x2="5.67" y2="5.726" xlink:href="#linear-gradient-5"/>
    <linearGradient id="linear-gradient-32" x1="-6.981" y1="-7.046" x2="0.554" y2="0.554" xlink:href="#linear-gradient-5"/>
    <linearGradient id="linear-gradient-33" x1="-6.98" y1="-7.045" x2="0.555" y2="0.555" xlink:href="#linear-gradient-5"/>
    <linearGradient id="linear-gradient-34" x1="-6.976" y1="-7.057" x2="0.553" y2="0.555" xlink:href="#linear-gradient-5"/>
    <linearGradient id="linear-gradient-35" x1="-6.975" y1="-7.057" x2="0.554" y2="0.555" xlink:href="#linear-gradient-5"/>
    <linearGradient id="linear-gradient-36" x1="-6.962" y1="-7.046" x2="0.555" y2="0.555" xlink:href="#linear-gradient-5"/>
    <linearGradient id="linear-gradient-37" x1="-11.688" y1="-11.754" x2="4.053" y2="4.074" xlink:href="#linear-gradient-5"/>
    <linearGradient id="linear-gradient-38" x1="-10.625" y1="-10.686" x2="5.117" y2="5.143" xlink:href="#linear-gradient-5"/>
    <linearGradient id="linear-gradient-39" x1="-11" y1="-11.063" x2="4.741" y2="4.766" xlink:href="#linear-gradient-5"/>
    <linearGradient id="linear-gradient-40" x1="-2.245" y1="-2.26" x2="13.497" y2="13.568" xlink:href="#linear-gradient-5"/>
    <linearGradient id="linear-gradient-41" x1="0" y1="0.5" x2="1" y2="0.5" xlink:href="#linear-gradient-5"/>
    <linearGradient id="linear-gradient-42" x1="0" y1="0.5" x2="1" y2="0.5" xlink:href="#linear-gradient-5"/>
    <linearGradient id="linear-gradient-43" x1="0" y1="0.5" x2="1" y2="0.5" xlink:href="#linear-gradient-5"/>
    <linearGradient id="linear-gradient-44" x1="0" y1="0.5" x2="1" y2="0.5" xlink:href="#linear-gradient-5"/>
    <linearGradient id="linear-gradient-45" x1="0" y1="0.5" x2="1" y2="0.5" xlink:href="#linear-gradient-5"/>
  </defs>
  <g id="Group_4453" data-name="Group 4453" transform="translate(-610.279 -140.754)">
    <path id="Path_2458" data-name="Path 2458" d="M447.963,152.191c-43.6-21.8-75.9-113.511-205.281-113.511C115.67,38.68,12.71,135.7,12.71,255.369s91.916,216.442,218.927,216.442c78.387,0,92.018-21.391,140.192-21.391,54.045,0,68.548,49.685,165.914,49.685,94.939,0,168.224-79.535,165.71-177.569C698.324,123.432,489.264,172.841,447.963,152.191Z" transform="translate(597.569 125.759)" fill="url(#linear-gradient)"/>
    <circle id="Ellipse_141" data-name="Ellipse 141" cx="52.316" cy="52.316" r="52.316" transform="translate(1037.804 140.754)" fill="url(#linear-gradient)"/>
    <circle id="Ellipse_142" data-name="Ellipse 142" cx="21.609" cy="21.609" r="21.609" transform="translate(935.28 598.605)" fill="url(#linear-gradient)"/>
    <circle id="Ellipse_143" data-name="Ellipse 143" cx="21.609" cy="21.609" r="21.609" transform="translate(1177.72 217.862)" fill="url(#linear-gradient)"/>
    <g id="Group_4417" data-name="Group 4417" transform="translate(701.195 336.546)">
      <g id="Group_4416" data-name="Group 4416">
        <path id="Path_2459" data-name="Path 2459" d="M167.6,319.848c0,6.917-5.726,12.149-12.876,12.149-7.382,0-12.876-5.246-12.876-12.149V295.783H85.861A13.115,13.115,0,0,1,72.52,282.675a20.846,20.846,0,0,1,2.151-7.382l45.762-110.11a12.525,12.525,0,0,1,11.437-7.382c6.191,0,12.876,5.726,12.876,12.4a10.105,10.105,0,0,1-.712,4.287c-6.917,15.971-33.845,81.511-40.748,97.482H141.9v-41.5c0-6.917,5.479-12.149,12.875-12.149,6.917,0,12.876,5.246,12.876,12.149v41.475h6.67a12.211,12.211,0,0,1,12.4,11.916,12.062,12.062,0,0,1-12.4,11.916h-6.67v24.08Z" transform="translate(-72.52 -157.8)" fill="#fff"/>
      </g>
    </g>
    <g id="Group_4422" data-name="Group 4422" transform="translate(1097.909 336.532)">
      <g id="Group_4419" data-name="Group 4419" transform="translate(23.993 71.6)">
        <path id="Path_2460" data-name="Path 2460" d="M372.89,212.5a5.435,5.435,0,1,1-5.435-5.435A5.436,5.436,0,0,1,372.89,212.5Z" transform="translate(-362.02 -207.06)" fill="#ddd"/>
        <g id="Group_4418" data-name="Group 4418">
          <path id="Path_2461" data-name="Path 2461" d="M363.3,212.5a5.426,5.426,0,0,1,4.8-5.391,4.724,4.724,0,0,0-.639-.044,5.435,5.435,0,1,0,0,10.87,4.573,4.573,0,0,0,.639-.044A5.416,5.416,0,0,1,363.3,212.5Z" transform="translate(-362.02 -207.06)" fill="#d1d1d1"/>
        </g>
      </g>
      <g id="Group_4421" data-name="Group 4421" transform="translate(75.015 128.639)">
        <path id="Path_2462" data-name="Path 2462" d="M411.284,253.387a7.077,7.077,0,1,1-7.077-7.077A7.076,7.076,0,0,1,411.284,253.387Z" transform="translate(-397.13 -246.31)" fill="#ddd"/>
        <g id="Group_4420" data-name="Group 4420" transform="translate(0.015)">
          <path id="Path_2463" data-name="Path 2463" d="M398.826,253.387a7.073,7.073,0,0,1,6.234-7.019,7.933,7.933,0,0,0-.843-.058,7.077,7.077,0,0,0,0,14.154,5.354,5.354,0,0,0,.843-.058A7.073,7.073,0,0,1,398.826,253.387Z" transform="translate(-397.14 -246.31)" fill="#d1d1d1"/>
        </g>
      </g>
      <path id="Path_2464" data-name="Path 2464" d="M447.293,271.94h-6.67V230.465c0-6.917-5.958-12.149-12.875-12.149-7.382,0-12.875,5.246-12.875,12.149V271.94H376.26c4.636-10.725,18.311-43.814,28.89-69.217,1.628-3.909,3.139-7.513,4.461-10.652l-.015-.015c3.2-7.658,5.842-13.936,7.426-17.584a10.106,10.106,0,0,0,.712-4.287c0-6.67-6.67-12.4-12.875-12.4a12.549,12.549,0,0,0-11.437,7.382l-45.762,110.11a21.247,21.247,0,0,0-2.151,7.382,13.115,13.115,0,0,0,13.341,13.108h56.007v24.065c0,6.917,5.479,12.149,12.875,12.149,7.15,0,12.875-5.246,12.875-12.149V295.773h6.67a12.062,12.062,0,0,0,12.4-11.916A12.207,12.207,0,0,0,447.293,271.94Z" transform="translate(-345.51 -157.79)" fill="#fff"/>
    </g>
    <g id="Group_4426" data-name="Group 4426" transform="translate(647.717 202.501)">
      <g id="Group_4423" data-name="Group 4423" transform="translate(218.84 10.71)">
        <path id="Path_2465" data-name="Path 2465" d="M207.924,149.9c-.407-.087-2.994-.7-3.749-1.918a19.371,19.371,0,0,1-1.381-3.357v-.044a.045.045,0,0,1-.015.029v.015a22.651,22.651,0,0,1-1.381,3.357c-.756,1.235-3.342,1.831-3.749,1.918h.015c.407.087,2.994.7,3.749,1.918a19.376,19.376,0,0,1,1.381,3.357v.044a.014.014,0,0,1,.015-.015v-.015a19.847,19.847,0,0,1,1.381-3.357c.756-1.235,3.342-1.831,3.749-1.918h-.015Z" transform="translate(-181.171 -40.457)" fill="url(#linear-gradient-5)"/>
        <path id="Path_2466" data-name="Path 2466" d="M265.179,100.724c-.6-.131-4.3-.988-5.391-2.761a30.3,30.3,0,0,1-1.991-4.825V93.08a.051.051,0,0,1-.015.029v.015a30.3,30.3,0,0,1-1.991,4.825c-1.09,1.773-4.81,2.645-5.391,2.776h.014c.6.131,4.3,1,5.391,2.776a27.768,27.768,0,0,1,1.991,4.825v.058a.051.051,0,0,1,.015-.029.014.014,0,0,0,.015.015v-.029a30.305,30.305,0,0,1,1.991-4.825c1.09-1.773,4.81-2.645,5.406-2.776h-.044Z" transform="translate(-157.263 -63.798)" fill="url(#linear-gradient-6)"/>
        <path id="Path_2467" data-name="Path 2467" d="M240.561,116.611c-.291-.058-2.078-.48-2.6-1.337a14.451,14.451,0,0,1-.959-2.325v-.015a15.941,15.941,0,0,1-.959,2.325c-.523.857-2.325,1.279-2.6,1.337h.015c.291.058,2.078.48,2.6,1.337a13.209,13.209,0,0,1,.959,2.325v.029a14.451,14.451,0,0,1,.959-2.325c.523-.872,2.325-1.293,2.587-1.351Z" transform="translate(-164.95 -54.806)" fill="url(#linear-gradient-7)"/>
        <path id="Path_2468" data-name="Path 2468" d="M215.957,98.579c-.2-.044-1.424-.334-1.787-.916a9.039,9.039,0,0,1-.654-1.6v0h0v.015a10.662,10.662,0,0,1-.668,1.6c-.363.6-1.6.872-1.787.916h0c.2.044,1.424.334,1.787.916a10.662,10.662,0,0,1,.668,1.6v0h0v-.015a9.3,9.3,0,0,1,.668-1.6c.349-.6,1.584-.872,1.773-.916Z" transform="translate(-175.093 -62.452)" fill="url(#linear-gradient-8)"/>
        <path id="Path_2469" data-name="Path 2469" d="M236.317,142.759c-.2-.044-1.424-.334-1.787-.916a9.042,9.042,0,0,1-.654-1.6v0h0v.015a10.659,10.659,0,0,1-.668,1.6c-.363.6-1.6.872-1.787.916h0c.2.044,1.424.334,1.787.916a10.658,10.658,0,0,1,.668,1.6v0h0v-.015a8.261,8.261,0,0,1,.668-1.6c.349-.581,1.584-.872,1.773-.916Z" transform="translate(-165.865 -42.428)" fill="url(#linear-gradient-9)"/>
        <path id="Path_2470" data-name="Path 2470" d="M196.657,99.129c-.2-.044-1.424-.334-1.787-.916a9.041,9.041,0,0,1-.654-1.6v0h0v.015a10.658,10.658,0,0,1-.668,1.6c-.363.6-1.6.872-1.787.916h0c.2.044,1.424.334,1.787.916a10.657,10.657,0,0,1,.668,1.6v0h0v-.015a8.258,8.258,0,0,1,.668-1.6c.349-.581,1.584-.872,1.773-.916Z" transform="translate(-183.84 -62.202)" fill="url(#linear-gradient-10)"/>
        <path id="Path_2471" data-name="Path 2471" d="M191.207,119.579c-.2-.044-1.424-.334-1.787-.916a9.039,9.039,0,0,1-.654-1.6v0h0v.015a10.661,10.661,0,0,1-.668,1.6c-.363.6-1.6.872-1.787.916h0c.2.044,1.424.334,1.787.916a10.661,10.661,0,0,1,.668,1.6v0h0v-.015a9.3,9.3,0,0,1,.668-1.6c.349-.581,1.6-.872,1.773-.916Z" transform="translate(-186.31 -52.934)" fill="url(#linear-gradient-11)"/>
        <path id="Path_2472" data-name="Path 2472" d="M236.317,75.459c-.2-.044-1.424-.334-1.787-.916a9.042,9.042,0,0,1-.654-1.6v0h0v.015a10.659,10.659,0,0,1-.668,1.6c-.363.6-1.6.872-1.787.916h0c.2.044,1.424.334,1.787.916a10.659,10.659,0,0,1,.668,1.6v0h0v-.015a8.26,8.26,0,0,1,.668-1.6c.349-.581,1.584-.872,1.773-.916Z" transform="translate(-165.865 -72.93)" fill="url(#linear-gradient-12)"/>
        <path id="Path_2473" data-name="Path 2473" d="M263.527,130.139c-.2-.044-1.424-.334-1.787-.916a9.044,9.044,0,0,1-.654-1.6v0h0v.015a10.655,10.655,0,0,1-.668,1.6c-.363.6-1.6.872-1.787.916h0c.2.044,1.424.334,1.787.916a10.654,10.654,0,0,1,.668,1.6v0h0v-.015a9.31,9.31,0,0,1,.668-1.6c.349-.581,1.584-.872,1.773-.916Z" transform="translate(-153.533 -48.148)" fill="url(#linear-gradient-13)"/>
        <path id="Path_2474" data-name="Path 2474" d="M298.007,154.429c-.2-.044-1.424-.334-1.787-.916a9.042,9.042,0,0,1-.654-1.6v0h0v.015a10.657,10.657,0,0,1-.668,1.6c-.363.6-1.6.872-1.787.916h0c.2.044,1.424.334,1.787.916a10.659,10.659,0,0,1,.668,1.6v0h0v-.015a9.308,9.308,0,0,1,.668-1.6c.349-.581,1.584-.872,1.773-.916Z" transform="translate(-137.906 -37.139)" fill="url(#linear-gradient-14)"/>
        <path id="Path_2475" data-name="Path 2475" d="M351.4,157.026c-.262-.058-1.9-.436-2.383-1.221a14.746,14.746,0,0,1-.886-2.136v-.015a12.038,12.038,0,0,1-.886,2.136c-.48.785-2.136,1.177-2.383,1.221h.015c.262.058,1.9.436,2.383,1.221a13.256,13.256,0,0,1,.886,2.136v.015a12.038,12.038,0,0,1,.886-2.136c.465-.785,2.107-1.163,2.369-1.221Z" transform="translate(-114.452 -36.351)" fill="url(#linear-gradient-15)"/>
        <path id="Path_2476" data-name="Path 2476" d="M358.507,188.8c-.2-.044-1.424-.334-1.787-.916a9.043,9.043,0,0,1-.654-1.6v0h0v.015a10.654,10.654,0,0,1-.668,1.6c-.363.6-1.6.872-1.787.916h0c.2.044,1.424.334,1.787.916a10.653,10.653,0,0,1,.668,1.6v0h0v-.015a9.309,9.309,0,0,1,.668-1.6c.349-.581,1.584-.872,1.773-.916Z" transform="translate(-110.487 -21.562)" fill="url(#linear-gradient-16)"/>
      </g>
      <g id="Group_4424" data-name="Group 4424">
        <path id="Path_2477" data-name="Path 2477" d="M61.357,203.9c-.581-.131-4.229-.974-5.3-2.718a30.171,30.171,0,0,1-1.962-4.737v-.058a.051.051,0,0,1-.015.029v.015a30.172,30.172,0,0,1-1.962,4.737c-1.075,1.744-4.737,2.6-5.3,2.732h.015c.581.131,4.229.974,5.3,2.717a28.82,28.82,0,0,1,1.962,4.737v.058a.051.051,0,0,1,.015-.029.014.014,0,0,0,.015.015v-.029a27.579,27.579,0,0,1,1.962-4.737c1.075-1.744,4.737-2.6,5.319-2.732Z" transform="translate(-30.694 -6.266)" fill="url(#linear-gradient-17)"/>
        <path id="Path_2478" data-name="Path 2478" d="M106.277,88.173c-.581-.131-4.229-.974-5.3-2.718a30.172,30.172,0,0,1-1.962-4.737V80.66a.051.051,0,0,1-.015.029V80.7a30.172,30.172,0,0,1-1.962,4.737c-1.075,1.744-4.737,2.6-5.3,2.732h.015c.581.131,4.229.974,5.3,2.718a28.819,28.819,0,0,1,1.962,4.737v.058a.051.051,0,0,1,.015-.029.014.014,0,0,0,.015.015v-.029A27.579,27.579,0,0,1,101,90.905c1.075-1.744,4.737-2.6,5.319-2.732h-.044Z" transform="translate(-10.335 -58.716)" fill="url(#linear-gradient-18)"/>
        <path id="Path_2479" data-name="Path 2479" d="M130.381,113.088c-.421-.087-3.008-.7-3.778-1.933a21.531,21.531,0,0,1-1.4-3.371v-.044a.045.045,0,0,1-.015.029v.015a21.529,21.529,0,0,1-1.4,3.371c-.77,1.25-3.371,1.846-3.778,1.933h.015c.421.087,3.008.7,3.778,1.933a21.529,21.529,0,0,1,1.4,3.371v.044a.014.014,0,0,1,.015-.015v-.015a20.19,20.19,0,0,1,1.4-3.371c.77-1.235,3.371-1.846,3.778-1.933h-.015Z" transform="translate(2.486 -46.443)" fill="url(#linear-gradient-19)"/>
        <path id="Path_2480" data-name="Path 2480" d="M164.621,70.908c-.421-.087-3.008-.7-3.778-1.933a21.532,21.532,0,0,1-1.4-3.371V65.56a.045.045,0,0,1-.015.029V65.6a21.531,21.531,0,0,1-1.4,3.371c-.77,1.235-3.371,1.846-3.778,1.933h.015c.421.087,3.008.7,3.778,1.933a21.531,21.531,0,0,1,1.4,3.371v.044a.014.014,0,0,1,.015-.015v-.015a20.19,20.19,0,0,1,1.4-3.371c.77-1.235,3.371-1.846,3.778-1.933h-.015Z" transform="translate(18.004 -65.56)" fill="url(#linear-gradient-20)"/>
        <path id="Path_2481" data-name="Path 2481" d="M87.619,179.712c-.407-.087-2.936-.683-3.691-1.889a21.471,21.471,0,0,1-1.366-3.3v-.044a.014.014,0,0,1-.015.015v.015a20.084,20.084,0,0,1-1.366,3.3c-.756,1.221-3.284,1.8-3.691,1.889H77.5c.407.087,2.936.683,3.691,1.889a21.472,21.472,0,0,1,1.366,3.3v.044a.014.014,0,0,1,.015-.015V184.9a18.868,18.868,0,0,1,1.366-3.3c.756-1.221,3.3-1.8,3.691-1.889Z" transform="translate(-16.789 -16.196)" fill="url(#linear-gradient-21)"/>
        <path id="Path_2482" data-name="Path 2482" d="M51.327,146.663c-.581-.131-4.229-.974-5.3-2.718a30.173,30.173,0,0,1-1.962-4.737v-.058a.051.051,0,0,1-.015.029v.015a30.172,30.172,0,0,1-1.962,4.737c-1.075,1.744-4.737,2.6-5.3,2.732h.015c.581.131,4.229.974,5.3,2.718a28.819,28.819,0,0,1,1.962,4.737v.058a.051.051,0,0,1,.015-.029.014.014,0,0,0,.015.015v-.029a27.579,27.579,0,0,1,1.962-4.737c1.075-1.744,4.737-2.6,5.319-2.732Z" transform="translate(-35.24 -32.208)" fill="url(#linear-gradient-22)"/>
        <path id="Path_2483" data-name="Path 2483" d="M57.911,166.914c-.276-.058-2.02-.465-2.543-1.308a13.135,13.135,0,0,1-.93-2.267v-.015a13.41,13.41,0,0,1-.945,2.267c-.509.843-2.267,1.25-2.543,1.308h.015c.276.058,2.02.465,2.543,1.308a13.135,13.135,0,0,1,.93,2.267v.015a13.136,13.136,0,0,1,.93-2.267c.538-.843,2.282-1.25,2.543-1.308Z" transform="translate(-28.817 -21.258)" fill="url(#linear-gradient-23)"/>
        <path id="Path_2484" data-name="Path 2484" d="M42.681,189.994c-.276-.058-2.02-.465-2.543-1.308a13.135,13.135,0,0,1-.93-2.267V186.4a13.409,13.409,0,0,1-.945,2.267c-.509.843-2.267,1.25-2.543,1.308h.015c.276.058,2.02.465,2.543,1.308a13.135,13.135,0,0,1,.93,2.267v.015a13.136,13.136,0,0,1,.93-2.267c.523-.843,2.282-1.25,2.543-1.308Z" transform="translate(-35.72 -10.798)" fill="url(#linear-gradient-24)"/>
        <path id="Path_2485" data-name="Path 2485" d="M84.681,149.824c-.276-.058-2.02-.465-2.543-1.308a13.136,13.136,0,0,1-.93-2.267v-.015a13.409,13.409,0,0,1-.945,2.267c-.509.843-2.267,1.25-2.543,1.308h.015c.276.058,2.02.465,2.543,1.308a13.136,13.136,0,0,1,.93,2.267v.015a13.135,13.135,0,0,1,.93-2.267c.523-.843,2.267-1.25,2.543-1.308Z" transform="translate(-16.685 -29.003)" fill="url(#linear-gradient-25)"/>
        <path id="Path_2486" data-name="Path 2486" d="M79.471,209.524c-.276-.058-2.02-.465-2.543-1.308a13.136,13.136,0,0,1-.93-2.267v-.015a13.409,13.409,0,0,1-.945,2.267c-.509.843-2.267,1.25-2.543,1.308h.015c.276.058,2.02.465,2.543,1.308a13.136,13.136,0,0,1,.93,2.267v.015a13.136,13.136,0,0,1,.93-2.267c.538-.843,2.282-1.25,2.543-1.308Z" transform="translate(-19.046 -1.946)" fill="url(#linear-gradient-26)"/>
        <path id="Path_2487" data-name="Path 2487" d="M222.651,286.424c-.276-.058-2.02-.465-2.543-1.308a13.135,13.135,0,0,1-.93-2.267v-.014a13.408,13.408,0,0,1-.945,2.267c-.509.843-2.267,1.25-2.543,1.308h.015c.276.058,2.02.465,2.543,1.308a13.135,13.135,0,0,1,.93,2.267V290a13.133,13.133,0,0,1,.93-2.267c.523-.843,2.282-1.25,2.543-1.308Z" transform="translate(45.846 32.906)" fill="url(#linear-gradient-27)"/>
        <path id="Path_2488" data-name="Path 2488" d="M138.207,311.995c-.32-.073-2.282-.523-2.863-1.468a17.352,17.352,0,0,1-1.061-2.558v-.015a14.639,14.639,0,0,1-1.061,2.558c-.581.945-2.558,1.41-2.863,1.468h.015c.32.073,2.282.523,2.863,1.468a14.637,14.637,0,0,1,1.061,2.558v.014a14.64,14.64,0,0,1,1.061-2.558c.567-.93,2.543-1.4,2.848-1.468Z" transform="translate(7.172 44.291)" fill="url(#linear-gradient-28)"/>
        <path id="Path_2489" data-name="Path 2489" d="M162.387,322.409c-.291-.058-2.107-.494-2.645-1.352a14.929,14.929,0,0,1-.974-2.369v-.015a14.932,14.932,0,0,1-.974,2.369c-.538.872-2.369,1.293-2.645,1.366h.015c.291.058,2.107.494,2.645,1.366a13.657,13.657,0,0,1,.974,2.369v.015a14.93,14.93,0,0,1,.974-2.369c.523-.9,2.354-1.322,2.63-1.381Z" transform="translate(18.408 49.149)" fill="url(#linear-gradient-29)"/>
      </g>
      <g id="Group_4425" data-name="Group 4425" transform="translate(366.705 166.306)">
        <path id="Path_2490" data-name="Path 2490" d="M327.5,290.444c.392.058,2.8.509,3.56,1.628a18.743,18.743,0,0,1,1.424,3.052v.015a19.44,19.44,0,0,1,1.148-3.168c.654-1.177,3.023-1.846,3.4-1.947h-.015c-.392-.073-2.8-.523-3.56-1.628a18.747,18.747,0,0,1-1.424-3.052v-.015a18.574,18.574,0,0,1-1.148,3.168c-.654,1.177-3.037,1.846-3.386,1.947Z" transform="translate(-270.185 -132.276)" fill="url(#linear-gradient-30)"/>
        <path id="Path_2491" data-name="Path 2491" d="M310.06,306.2a4.51,4.51,0,0,1,2.485,1.134,13.245,13.245,0,0,1,.988,2.122v.015a12.832,12.832,0,0,1,.8-2.209c.45-.814,2.107-1.279,2.369-1.352h-.015a4.51,4.51,0,0,1-2.485-1.133,13.243,13.243,0,0,1-.988-2.122v-.015a12.836,12.836,0,0,1-.8,2.209c-.451.814-2.107,1.279-2.354,1.351Z" transform="translate(-278.089 -124.422)" fill="url(#linear-gradient-31)"/>
        <path id="Path_2492" data-name="Path 2492" d="M335.8,327.724c.392.058,2.8.509,3.56,1.628a18.745,18.745,0,0,1,1.424,3.052v.015a19.435,19.435,0,0,1,1.148-3.168c.654-1.177,3.023-1.846,3.4-1.947h-.015c-.392-.073-2.8-.523-3.56-1.628a18.2,18.2,0,0,1-1.424-3.052v-.015a18.574,18.574,0,0,1-1.148,3.168c-.654,1.177-3.037,1.846-3.386,1.947Z" transform="translate(-266.423 -115.38)" fill="url(#linear-gradient-32)"/>
        <path id="Path_2493" data-name="Path 2493" d="M424.08,298.364c.392.058,2.8.509,3.56,1.628a18.747,18.747,0,0,1,1.424,3.052v.015a19.44,19.44,0,0,1,1.148-3.168c.654-1.177,3.023-1.846,3.4-1.947H433.6c-.392-.073-2.8-.523-3.56-1.628a18.2,18.2,0,0,1-1.424-3.052v-.015a18.575,18.575,0,0,1-1.148,3.168c-.639,1.177-3.023,1.846-3.386,1.947Z" transform="translate(-226.413 -128.687)" fill="url(#linear-gradient-33)"/>
        <path id="Path_2494" data-name="Path 2494" d="M415.31,326.831c.32.058,2.369.436,3.008,1.366a17.75,17.75,0,0,1,1.206,2.572v.014a16.686,16.686,0,0,1,.959-2.674c.552-.988,2.558-1.555,2.863-1.642h-.015c-.32-.058-2.369-.436-3.008-1.366a16.3,16.3,0,0,1-1.206-2.572v-.015a15.361,15.361,0,0,1-.959,2.674c-.552.988-2.543,1.555-2.848,1.642Z" transform="translate(-230.388 -115.417)" fill="url(#linear-gradient-34)"/>
        <path id="Path_2495" data-name="Path 2495" d="M424.6,184.331c.32.058,2.369.436,3.008,1.366a17.745,17.745,0,0,1,1.206,2.572v.015a16.679,16.679,0,0,1,.959-2.674c.552-.988,2.558-1.555,2.863-1.642h-.015c-.32-.058-2.369-.436-3.008-1.366a16.306,16.306,0,0,1-1.206-2.572v-.015a15.356,15.356,0,0,1-.959,2.674c-.538,1-2.543,1.555-2.848,1.642Z" transform="translate(-226.178 -180)" fill="url(#linear-gradient-35)"/>
        <path id="Path_2496" data-name="Path 2496" d="M461.085,227.333c.436.073,3.168.581,4.025,1.831a22.329,22.329,0,0,1,1.613,3.444v0a21.359,21.359,0,0,1,1.293-3.575c.741-1.337,3.415-2.093,3.837-2.194h-.015c-.436-.073-3.168-.581-4.025-1.831a21.033,21.033,0,0,1-1.613-3.444v0a20.117,20.117,0,0,1-1.293,3.575c-.741,1.337-3.415,2.078-3.836,2.194Z" transform="translate(-209.649 -161.182)" fill="url(#linear-gradient-36)"/>
        <path id="Path_2497" data-name="Path 2497" d="M329.28,313.061c.189.029,1.337.247,1.7.785a9.3,9.3,0,0,1,.683,1.468v0h0V315.3a8.7,8.7,0,0,1,.552-1.511c.32-.567,1.453-.886,1.628-.93h0c-.189-.029-1.337-.247-1.7-.785a9.3,9.3,0,0,1-.683-1.468v0h0v.015a8.7,8.7,0,0,1-.552,1.511c-.32.567-1.468.886-1.628.93Z" transform="translate(-269.378 -120.814)" fill="url(#linear-gradient-37)"/>
        <path id="Path_2498" data-name="Path 2498" d="M338.59,297.461c.189.029,1.337.247,1.7.785a9.3,9.3,0,0,1,.683,1.468v0h0V299.7a8.7,8.7,0,0,1,.552-1.511c.32-.567,1.453-.886,1.628-.93h0c-.189-.029-1.337-.247-1.7-.785A9.3,9.3,0,0,1,340.77,295v0h0v.015a8.706,8.706,0,0,1-.552,1.511c-.32.552-1.468.872-1.628.93Z" transform="translate(-265.159 -127.885)" fill="url(#linear-gradient-38)"/>
        <path id="Path_2499" data-name="Path 2499" d="M312.22,325.081c.189.029,1.337.247,1.7.785a9.3,9.3,0,0,1,.683,1.468v0h0v-.015a8.7,8.7,0,0,1,.552-1.511c.32-.567,1.453-.886,1.628-.93h0c-.189-.029-1.337-.247-1.7-.785a9.3,9.3,0,0,1-.683-1.468v0h0v.015a8.7,8.7,0,0,1-.552,1.511c-.32.567-1.453.887-1.628.93Z" transform="translate(-277.11 -115.367)" fill="url(#linear-gradient-39)"/>
        <path id="Path_2500" data-name="Path 2500" d="M288.06,293.191c.189.029,1.337.247,1.7.785a9.3,9.3,0,0,1,.683,1.468v0h0v-.015a8.705,8.705,0,0,1,.552-1.511c.32-.567,1.453-.886,1.628-.93h0c-.189-.029-1.337-.247-1.7-.785a9.3,9.3,0,0,1-.683-1.468v0h0v.015a8.7,8.7,0,0,1-.552,1.511c-.32.567-1.453.886-1.628.93Z" transform="translate(-288.06 -129.82)" fill="url(#linear-gradient-40)"/>
      </g>
      <path id="Path_2501" data-name="Path 2501" d="M166.592,131.386,119.13,78.78l49.119,50.732s3.27,3.124,2.064,4.331C169.339,134.816,166.592,131.386,166.592,131.386Z" transform="translate(2.083 -59.568)" fill="url(#linear-gradient-41)"/>
      <path id="Path_2502" data-name="Path 2502" d="M188.779,319.241,157.84,284.96l32.014,33.075s2.136,2.034,1.351,2.819C190.566,321.465,188.779,319.241,188.779,319.241Z" transform="translate(19.627 33.876)" fill="url(#linear-gradient-42)"/>
      <path id="Path_2503" data-name="Path 2503" d="M405.439,323.634,362.38,275.91l44.556,46.023s2.965,2.834,1.875,3.924C407.924,326.744,405.439,323.634,405.439,323.634Z" transform="translate(112.328 29.774)" fill="url(#linear-gradient-43)"/>
      <path id="Path_2504" data-name="Path 2504" d="M463.84,309.3,438.99,281.75l25.722,26.565s1.715,1.628,1.075,2.267C465.279,311.091,463.84,309.3,463.84,309.3Z" transform="translate(147.049 32.421)" fill="url(#linear-gradient-44)"/>
      <path id="Path_2505" data-name="Path 2505" d="M173.42,193.433,148.57,165.88l25.722,26.565s1.715,1.628,1.075,2.267C174.859,195.235,173.42,193.433,173.42,193.433Z" transform="translate(15.426 -20.093)" fill="url(#linear-gradient-45)"/>
    </g>
    <circle id="Ellipse_144" data-name="Ellipse 144" cx="67.386" cy="67.386" r="67.386" transform="matrix(0.456, -0.89, 0.89, 0.456, 868.581, 458.373)" fill="#fff"/>
    <g id="Group_4428" data-name="Group 4428" transform="translate(943.534 361.733)">
      <g id="Group_4427" data-name="Group 4427">
        <path id="Path_2506" data-name="Path 2506" d="M245.747,175.783c-2.194.305-4.345.727-6.467,1.221a67.386,67.386,0,0,1,18.456,132.853c2.165-.087,4.36-.276,6.554-.581a67.387,67.387,0,0,0-18.543-133.493Z" transform="translate(-239.28 -175.132)" fill="#ececec"/>
      </g>
    </g>
    <g id="Group_4430" data-name="Group 4430" transform="translate(974.05 394.791)">
      <path id="Path_2507" data-name="Path 2507" d="M275.481,204.474a7.637,7.637,0,1,1-8.618-6.51A7.638,7.638,0,0,1,275.481,204.474Z" transform="translate(-260.279 -197.877)" fill="#fd4a4a"/>
      <g id="Group_4429" data-name="Group 4429">
        <path id="Path_2508" data-name="Path 2508" d="M262.141,206.323a7.648,7.648,0,0,1,5.624-8.443,6.273,6.273,0,0,0-.9.073,7.637,7.637,0,1,0,2.107,15.128,6.006,6.006,0,0,0,.886-.189A7.6,7.6,0,0,1,262.141,206.323Z" transform="translate(-260.279 -197.88)" fill="#fd4a4a"/>
      </g>
    </g>
    <g id="Group_4432" data-name="Group 4432" transform="translate(917.995 394.726)">
      <path id="Path_2509" data-name="Path 2509" d="M241.243,206.3a9.816,9.816,0,1,1-11.074-8.371A9.823,9.823,0,0,1,241.243,206.3Z" transform="translate(-221.706 -197.836)" fill="#fd4a4a"/>
      <g id="Group_4431" data-name="Group 4431" transform="translate(0.015 0.006)">
        <path id="Path_2510" data-name="Path 2510" d="M224.12,208.666a9.8,9.8,0,0,1,7.222-10.826,10.426,10.426,0,0,0-1.163.087,9.816,9.816,0,0,0,2.7,19.444,10.031,10.031,0,0,0,1.148-.233A9.831,9.831,0,0,1,224.12,208.666Z" transform="translate(-221.716 -197.84)" fill="#fd4a4a"/>
      </g>
    </g>
    <g id="Group_4434" data-name="Group 4434" transform="translate(955.375 473.8)">
      <path id="Path_2511" data-name="Path 2511" d="M263.009,258.994a7.828,7.828,0,1,1-8.836-6.67A7.832,7.832,0,0,1,263.009,258.994Z" transform="translate(-247.428 -252.248)" fill="#fd4a4a"/>
      <g id="Group_4433" data-name="Group 4433" transform="translate(0.014 0.003)">
        <path id="Path_2512" data-name="Path 2512" d="M249.345,260.9a7.825,7.825,0,0,1,5.769-8.647,6.686,6.686,0,0,0-.93.073,7.828,7.828,0,1,0,2.165,15.506c.305-.044.61-.116.916-.189A7.841,7.841,0,0,1,249.345,260.9Z" transform="translate(-247.438 -252.25)" fill="#fd4a4a"/>
      </g>
    </g>
    <g id="Group_4436" data-name="Group 4436" transform="translate(901.119 440.438)">
      <circle id="Ellipse_145" data-name="Ellipse 145" cx="5.144" cy="5.144" r="5.144" transform="matrix(0.953, -0.304, 0.304, 0.953, 0, 3.129)" fill="#fd4a4a"/>
      <g id="Group_4435" data-name="Group 4435" transform="translate(1.326 1.336)">
        <path id="Path_2513" data-name="Path 2513" d="M212.262,235.892a5.147,5.147,0,0,1,3.793-5.682,4.312,4.312,0,0,0-.61.044,5.15,5.15,0,0,0,1.424,10.2,3.944,3.944,0,0,0,.6-.131A5.14,5.14,0,0,1,212.262,235.892Z" transform="translate(-211.006 -230.21)" fill="#fd4a4a"/>
      </g>
    </g>
    <g id="Group_4438" data-name="Group 4438" transform="translate(981.657 441.285)">
      <path id="Path_2514" data-name="Path 2514" d="M273.617,233.385a4.071,4.071,0,1,1-4.592-3.473A4.085,4.085,0,0,1,273.617,233.385Z" transform="translate(-265.514 -229.874)" fill="#fd4a4a"/>
      <g id="Group_4437" data-name="Group 4437" transform="translate(0 0.009)">
        <path id="Path_2515" data-name="Path 2515" d="M266.511,234.37a4.061,4.061,0,0,1,2.994-4.49c-.16,0-.32.015-.48.029a4.071,4.071,0,1,0,1.119,8.065c.16-.029.32-.058.48-.1A4.069,4.069,0,0,1,266.511,234.37Z" transform="translate(-265.514 -229.88)" fill="#fd4a4a"/>
      </g>
    </g>
    <g id="Group_4440" data-name="Group 4440" transform="translate(953.273 374.303)">
      <path id="Path_2516" data-name="Path 2516" d="M251.153,186.017a2.6,2.6,0,1,1-2.936-2.209A2.6,2.6,0,0,1,251.153,186.017Z" transform="translate(-245.982 -183.782)" fill="#fd4a4a"/>
      <g id="Group_4439" data-name="Group 4439" transform="translate(0.014 0.012)">
        <path id="Path_2517" data-name="Path 2517" d="M246.614,186.653a2.573,2.573,0,0,1,1.918-2.863,2.164,2.164,0,0,0-.305.029,2.6,2.6,0,0,0,.727,5.144c.1-.015.2-.044.305-.058A2.649,2.649,0,0,1,246.614,186.653Z" transform="translate(-245.992 -183.79)" fill="#fd4a4a"/>
      </g>
    </g>
    <g id="Group_4442" data-name="Group 4442" transform="translate(951.094 424.815)">
      <path id="Path_2518" data-name="Path 2518" d="M252.995,222.231a4.277,4.277,0,1,1-4.825-3.648A4.278,4.278,0,0,1,252.995,222.231Z" transform="translate(-244.482 -218.54)" fill="#fd4a4a"/>
      <g id="Group_4441" data-name="Group 4441" transform="translate(0.015)">
        <path id="Path_2519" data-name="Path 2519" d="M245.535,223.263a4.266,4.266,0,0,1,3.153-4.723,3.007,3.007,0,0,0-.509.044,4.277,4.277,0,0,0,1.177,8.472,4.939,4.939,0,0,0,.494-.1A4.3,4.3,0,0,1,245.535,223.263Z" transform="translate(-244.492 -218.54)" fill="#fd4a4a"/>
      </g>
    </g>
    <g id="Group_4444" data-name="Group 4444" transform="translate(932.092 445.203)">
      <path id="Path_2520" data-name="Path 2520" d="M244.239,238.117a6.442,6.442,0,1,1-7.266-5.479A6.455,6.455,0,0,1,244.239,238.117Z" transform="translate(-231.402 -232.566)" fill="#fd4a4a"/>
      <g id="Group_4443" data-name="Group 4443">
        <path id="Path_2521" data-name="Path 2521" d="M232.981,239.691a6.446,6.446,0,0,1,4.752-7.121,4.7,4.7,0,0,0-.77.058,6.441,6.441,0,1,0,1.773,12.759,4.366,4.366,0,0,0,.756-.16A6.44,6.44,0,0,1,232.981,239.691Z" transform="translate(-231.407 -232.57)" fill="#fd4a4a"/>
      </g>
    </g>
    <g id="Group_4445" data-name="Group 4445" transform="translate(836.924 364.462)">
      <path id="Path_2522" data-name="Path 2522" d="M322.272,183.491c4.665-1.235,9.388-2.223,14.125-3.168q7.128-1.33,14.372-2.194c4.825-.6,9.693-.916,14.59-1.061a129.634,129.634,0,0,1,14.808.378,77.737,77.737,0,0,1,14.968,2.747,43.059,43.059,0,0,1,7.44,2.906,32.309,32.309,0,0,1,7.106,4.723,22.3,22.3,0,0,1,5.566,7.513,24.029,24.029,0,0,1,.857,2.3c.218.785.421,1.584.61,2.383a23.464,23.464,0,0,1,.349,4.81,26.947,26.947,0,0,1-.538,4.636,32.87,32.87,0,0,1-1.264,4.258,41.565,41.565,0,0,1-3.735,7.557c-5.886,9.17-13.471,16.145-21.377,22.35a191.075,191.075,0,0,1-24.981,16.349,303.084,303.084,0,0,1-54.205,23.15q-14.016,4.447-28.381,7.775c-9.577,2.151-19.27,3.895-29.05,5.115a221.089,221.089,0,0,1-29.646,1.8,126.634,126.634,0,0,1-30.111-3.517,56.387,56.387,0,0,1-14.9-6,37.052,37.052,0,0,1-3.546-2.4c-.581-.45-1.133-.959-1.686-1.439l-.828-.741-.785-.843a21.422,21.422,0,0,1-4.926-7.964,20.621,20.621,0,0,1-1.061-9.33,26.011,26.011,0,0,1,2.427-8.341,48.411,48.411,0,0,1,9.184-12.788,94.427,94.427,0,0,1,11.35-9.766,126.4,126.4,0,0,1,12.265-8.065q6.321-3.662,12.861-6.816c4.389-2.064,8.792-4.025,13.282-5.769-4.084,2.572-8.138,5.13-12.076,7.862-3.967,2.688-7.847,5.464-11.582,8.4-7.44,5.856-14.619,12.12-20.185,19.328a41.128,41.128,0,0,0-6.539,11.19c-1.381,3.837-1.526,7.5-.116,10.332a11.457,11.457,0,0,0,2.979,3.924l.48.451.552.407c.378.276.727.567,1.119.814a25.134,25.134,0,0,0,2.543,1.439,48.357,48.357,0,0,0,12.047,3.866,93.612,93.612,0,0,0,13.37,1.555c4.549.233,9.141.305,13.747.116a238.451,238.451,0,0,0,27.727-2.732c9.228-1.439,18.427-3.212,27.538-5.464,9.126-2.18,18.165-4.737,27.1-7.615q13.428-4.229,26.449-9.577,13.035-5.232,25.46-11.684a199.448,199.448,0,0,0,23.731-14.285,110.159,110.159,0,0,0,10.594-8.443,61,61,0,0,0,8.748-9.548,33.434,33.434,0,0,0,2.994-5.144,20.87,20.87,0,0,0,1-2.572,15.582,15.582,0,0,0,.48-2.485,10.6,10.6,0,0,0-3.081-8.821,29.173,29.173,0,0,0-10.318-6.452,72.364,72.364,0,0,0-13.05-3.735c-9.083-1.875-18.572-2.441-28.076-2.659-4.767-.1-9.533-.015-14.329.174C331.878,182.852,327.082,183.172,322.272,183.491Z" transform="translate(-165.919 -177.01)" fill="#cfcfcf"/>
    </g>
    <g id="Group_4448" data-name="Group 4448" transform="translate(1045.41 352.271)">
      <g id="Group_4447" data-name="Group 4447">
        <circle id="Ellipse_146" data-name="Ellipse 146" cx="14.082" cy="14.082" r="14.082" transform="translate(0 10.398) rotate(-21.665)" fill="#ffe39f"/>
        <g id="Group_4446" data-name="Group 4446" transform="translate(14.963 4.222)">
          <path id="Path_2523" data-name="Path 2523" d="M321.031,171.663a10.11,10.11,0,0,0-1.351.262,14.079,14.079,0,0,1,3.866,27.757c.45-.015.916-.058,1.366-.116a14.085,14.085,0,0,0-3.88-27.9Z" transform="translate(-319.68 -171.526)" fill="#ebd192"/>
        </g>
      </g>
    </g>
    <g id="Group_4451" data-name="Group 4451" transform="translate(832.839 446.915)">
      <path id="Path_2524" data-name="Path 2524" d="M199.441,249.489a18.252,18.252,0,1,1-20.592-15.564A18.244,18.244,0,0,1,199.441,249.489Z" transform="translate(-163.108 -233.748)" fill="#faff6e"/>
      <g id="Group_4450" data-name="Group 4450" transform="translate(13.998)">
        <g id="Group_4449" data-name="Group 4449">
          <path id="Path_2525" data-name="Path 2525" d="M174.484,233.925a16.807,16.807,0,0,0-1.744.334,18.25,18.25,0,0,1,5,35.982c.581-.029,1.177-.073,1.773-.16a18.252,18.252,0,1,0-5.028-36.156Z" transform="translate(-172.74 -233.748)" fill="#ebd43f"/>
        </g>
      </g>
    </g>
  </g>
</svg>
