<svg id="Layer_x0020_1" xmlns="http://www.w3.org/2000/svg" width="200.357" height="73.92" viewBox="0 0 200.357 73.92">
  <g id="_341810680" transform="translate(0 0)">
    <path id="Path_2278" data-name="Path 2278" d="M10878.369,3376.329c-.159-2.508-7.229-2.327-12.284-1.423-9.273,1.656-18.217,5.483-25.447,7.887-9.232,3.078-14.739,3.09-18.126,1-1.7-1.035-4.126-4.021-4.512-5.961,3.968,2.483,11.03,1.152,16.741-.4,5.354-1.448,18.694-6.723,27.879-8.817C10872.77,3366.3,10879.441,3368.8,10878.369,3376.329Zm-50.7,4.1-.135.013-.11,3.233.14-.013c.668-.013,1.073-.04,1.616-.091.152-.013.319-.039.518-.064l.118-.013v-.557l-.145.013c-.645.077-1,.1-1.644.129l.027-.776c.462-.026.761-.038,1.2-.09l.377-.039v-.569l-.389.052c-.429.038-.714.064-1.166.077l.027-.749c.633-.039.971-.065,1.614-.143l.12-.013.012-.569-.154.027C10828.9,3380.376,10828.486,3380.4,10827.673,3380.427Zm3.544.272a.642.642,0,0,1,.373-.169.841.841,0,0,1,.359,0,.8.8,0,0,1,.35.143l.115.078.326-.531-.1-.064a1.507,1.507,0,0,0-.491-.207,1.884,1.884,0,0,0-.6.013,1.56,1.56,0,0,0-.411.142,1.1,1.1,0,0,0-.324.246,1.05,1.05,0,0,0-.218.324.875.875,0,0,0-.094.388,1.011,1.011,0,0,0,.065.362.594.594,0,0,0,.221.271.854.854,0,0,0,.35.143,2.08,2.08,0,0,0,.438.065,2.478,2.478,0,0,1,.349.025.712.712,0,0,1,.181.065.127.127,0,0,1,.063.064.362.362,0,0,1,.028.143.432.432,0,0,1-.141.3.666.666,0,0,1-.393.194,1.02,1.02,0,0,1-.876-.232l-.1-.078-.364.491.1.078a1.519,1.519,0,0,0,.578.3,1.448,1.448,0,0,0,.532.026c.053,0,.1-.013.154-.013a1.4,1.4,0,0,0,.44-.156,1.345,1.345,0,0,0,.334-.246,1,1,0,0,0,.232-.35,1.133,1.133,0,0,0,.079-.426.651.651,0,0,0-.285-.594,1.459,1.459,0,0,0-.761-.195,2.482,2.482,0,0,1-.362-.025.5.5,0,0,1-.2-.078.114.114,0,0,1-.064-.065.508.508,0,0,1-.026-.142A.433.433,0,0,1,10831.217,3380.7Zm4.365-1.642c-.878.245-1.315.361-2.2.568l-.1.026.013.582.154-.039c.326-.078.506-.117.791-.194l.026,2.651.576-.143-.036-2.65c.325-.091.5-.142.853-.233l.093-.026v-.581Zm.469,3.116.644-.194-.024-.711-.634.181Zm4.837-4.746c-.328.647-.509,1.009-.808,1.6-.306-.362-.514-.595-.862-1.009l-.052-.064-.659.207.13.155c.476.556.722.828,1.2,1.358l.052,1.293.581-.195-.052-1.228c.427-.842.647-1.267,1.06-2.121l.145-.284-.711.232Zm1.432-.517-.26.077.169,3.194.362-.117c.7-.233,1.112-.362,1.873-.62l.092-.026-.039-.569-.152.052c-.65.22-1,.336-1.577.53l-.057-.75c.558-.194.869-.3,1.44-.492l.1-.026-.036-.569-.168.052c-.544.193-.855.284-1.359.452l-.038-.724c.607-.206.958-.323,1.6-.543l.094-.026-.039-.568-.154.051C10843.418,3376.536,10843.016,3376.678,10842.319,3376.911Zm4.631.439.168-.129a1.309,1.309,0,0,0,.243-.284,1.626,1.626,0,0,0,.156-.337,1.351,1.351,0,0,0,.026-.4.992.992,0,0,0-.092-.35.681.681,0,0,0-.229-.245.719.719,0,0,0-.418-.118,1.441,1.441,0,0,0-.5.079l-1.293.439.232,3.182.57-.2-.08-1.125.622-.219c.32.311.507.479.854.789l.062.052.674-.22-.167-.155C10847.437,3377.8,10847.245,3377.622,10846.95,3377.35Zm-1.265-.051h0l-.068-.906.761-.258a.725.725,0,0,1,.453-.039c.056.026.132.077.142.258a.612.612,0,0,1-.022.207.673.673,0,0,1-.119.208.866.866,0,0,1-.192.167.893.893,0,0,1-.247.116Zm3.344.012-.078-.737,1.54-.517-.065-.57-1.522.518-.067-.71,1.693-.582-.065-.556-2.248.763.284,3.155,2.327-.788-.066-.57Zm4.889-4.318-.633.207-.016.078c-.261,1.008-.385,1.551-.634,2.482-.408-.686-.658-1.1-1.112-1.849l-.047-.1-.608.207.089.142c.611,1,.905,1.487,1.524,2.47l.065.09.443-.155.019-.065c.354-1.305.521-1.965.844-3.271Zm1.642-.466-.053-.078-.452.142-.022.079c-.353,1.331-.533,1.965-.9,3.27l-.063.246.617-.207.031-.078c.09-.323.126-.491.219-.788.529-.181.838-.272,1.369-.453l.44.646.605-.193-.1-.155C10856.565,3373.989,10856.232,3373.5,10855.56,3372.528Zm-.452,1.952h0c.116-.426.2-.724.3-1.138.206.3.359.518.585.854C10855.647,3374.3,10855.42,3374.377,10855.107,3374.48Zm4.963-2.65-.139-.762-.556.167.361,2.03c-.7-.555-1.111-.892-1.863-1.5l-.052-.053-.468.155.014.117c.169,1.125.261,1.693.429,2.819l.025.155.57-.181-.322-2.095c.694.569,1.139.917,1.924,1.539l.064.051.43-.128-.014-.117C10860.3,3373.123,10860.214,3372.58,10860.07,3371.829Zm3.3-.62-.22-1.01-.362.078-.039.026c-.262.155-.377.232-.634.4l-.1.064.258.465.12-.077c.129-.078.22-.129.335-.194l.025.143c.167.8.271,1.292.453,2.172l.036.128.584-.128-.04-.13C10863.613,3372.347,10863.512,3371.842,10863.369,3371.21Zm2.959-.8a1.3,1.3,0,0,0-.385-.414,1.1,1.1,0,0,0-.417-.181,1.032,1.032,0,0,0-.487-.012,1.213,1.213,0,0,0-.443.154.987.987,0,0,0-.306.311.945.945,0,0,0-.156.388,1.11,1.11,0,0,0,.008.453.986.986,0,0,0,.172.375.85.85,0,0,0,.3.272,1.2,1.2,0,0,0,.4.142,1.421,1.421,0,0,0,.469,0,1.071,1.071,0,0,0,.526-.246.268.268,0,0,0,.063-.09.43.43,0,0,1,.015.129.976.976,0,0,1-.066.361.733.733,0,0,1-.18.247.593.593,0,0,1-.271.128.906.906,0,0,1-.324-.013,1.289,1.289,0,0,1-.35-.155l-.13-.064-.244.53.114.051a2.139,2.139,0,0,0,.465.182,1.326,1.326,0,0,0,.456.025c.037,0,.078-.013.116-.013a1.078,1.078,0,0,0,.514-.219,1.1,1.1,0,0,0,.354-.414,1.544,1.544,0,0,0,.14-.556,2.365,2.365,0,0,0-.065-.672A2.117,2.117,0,0,0,10866.328,3370.406Zm-.929.945h0a.755.755,0,0,1-.248,0,.909.909,0,0,1-.2-.065.6.6,0,0,1-.146-.128.907.907,0,0,1-.089-.194.591.591,0,0,1,0-.219.333.333,0,0,1,.066-.182.454.454,0,0,1,.14-.142.512.512,0,0,1,.218-.078.111.111,0,0,0,.056-.012,1.034,1.034,0,0,1,.193.012.469.469,0,0,1,.22.091.4.4,0,0,1,.155.142.378.378,0,0,1,.092.194,1,1,0,0,1,.013.194.457.457,0,0,1-.08.168.712.712,0,0,1-.143.142A.653.653,0,0,1,10865.4,3371.351Zm3.958-1.164a1.614,1.614,0,0,0-.389-.44,1.4,1.4,0,0,0-.427-.232,1.5,1.5,0,0,0-.492-.064,1.267,1.267,0,0,0-.466.116.916.916,0,0,0-.309.271.784.784,0,0,0-.17.375.946.946,0,0,0,.028.44.867.867,0,0,0,.179.388,1.019,1.019,0,0,0,.31.3,1.332,1.332,0,0,0,.387.168,1.409,1.409,0,0,0,.466.039h.077a1.073,1.073,0,0,0,.48-.18.7.7,0,0,0,.079-.091c0,.064.011.116.011.156a.864.864,0,0,1-.063.336.586.586,0,0,1-.168.219.5.5,0,0,1-.275.078.747.747,0,0,1-.334-.039,2.3,2.3,0,0,1-.359-.182l-.13-.077-.246.5.1.051a3.185,3.185,0,0,0,.479.233,1.6,1.6,0,0,0,.569.065l.064-.013a1.043,1.043,0,0,0,.468-.143.985.985,0,0,0,.349-.374,1.388,1.388,0,0,0,.14-.543,2.139,2.139,0,0,0-.075-.66A1.955,1.955,0,0,0,10869.357,3370.188Zm-.883.814h-.036a.87.87,0,0,1-.26-.013,1.1,1.1,0,0,1-.221-.091.645.645,0,0,1-.156-.155.506.506,0,0,1-.089-.208.484.484,0,0,1-.014-.194.4.4,0,0,1,.064-.167.579.579,0,0,1,.132-.117.642.642,0,0,1,.192-.052h.026a.971.971,0,0,1,.27.025.593.593,0,0,1,.217.117.619.619,0,0,1,.187.155,1.072,1.072,0,0,1,.09.207.87.87,0,0,1,.014.181.736.736,0,0,1-.066.155.465.465,0,0,1-.152.1A.47.47,0,0,1,10868.475,3371Zm4.271,1.138-.093-.013c-.517-.065-.826-.091-1.283-.117.131-.129.249-.232.413-.387.106-.1.2-.193.275-.271a.983.983,0,0,0,.178-.259.765.765,0,0,0,.094-.285,1.011,1.011,0,0,0-.029-.336,1.414,1.414,0,0,0-.164-.362,1.5,1.5,0,0,0-.286-.3,1.543,1.543,0,0,0-.788-.31,1.193,1.193,0,0,0-.377.013.863.863,0,0,0-.293.116,1.558,1.558,0,0,0-.221.207c-.05.091-.1.181-.142.272l-.067.1.516.311.066-.117a.78.78,0,0,1,.224-.3.482.482,0,0,1,.318-.064.5.5,0,0,1,.193.039.7.7,0,0,1,.193.116.955.955,0,0,1,.146.143.5.5,0,0,1,.078.181.352.352,0,0,1,.013.156.3.3,0,0,1-.038.142.709.709,0,0,1-.12.168,1.811,1.811,0,0,1-.219.232c-.321.324-.489.479-.841.841l-.05.052.1.414h.1c.827.026,1.231.052,2.045.143l.194.025Z" transform="translate(-10678.125 -3324.239)" fill="#c40a04"/>
    <path id="Path_2279" data-name="Path 2279" d="M14533.663,3936c-1.342,1.706-9.332,1.551-10.559.854-.752-.426-1.807-1.357-1.426-2a32.207,32.207,0,0,1,8.771-.748C14532.31,3934.227,14533.954,3935.145,14533.663,3936Z" transform="translate(-14333.839 -3883.185)" fill="#c40a04"/>
    <path id="Path_2280" data-name="Path 2280" d="M14527.007,3938a33.012,33.012,0,0,0-5.328.75c-.381.646.674,1.577,1.426,2,.088-.93,2.945-1.2,4.965-1.124Z" transform="translate(-14333.839 -3887.085)" fill="#c40a04"/>
    <path id="Path_2281" data-name="Path 2281" d="M13226.2,1092.719a11.64,11.64,0,0,1,4.656-3.517,5.246,5.246,0,0,1,4.385.155,7.711,7.711,0,0,1,3.451,5.289,10.088,10.088,0,0,1,.207,2.068c0,.905-.064,1.823-.146,2.715-.049.724-.125,1.435-.176,2.146-.053.62-.092,1.241-.105,1.862-.014,2.289.814,4.512,3.027,5.469l.189.077-.023.207a3.556,3.556,0,0,1-.6,1.513,4.715,4.715,0,0,1-3.41,1.9,4.263,4.263,0,0,1-4.18-1.862,12.479,12.479,0,0,1-1.525-7.047,28.112,28.112,0,0,1,.428-3.969,6.087,6.087,0,0,0,.053-2.47.915.915,0,0,0-.57-.724,1.545,1.545,0,0,0-1.293.556c-.662.685-1.281,1.4-1.875,2.146a28.856,28.856,0,0,0-3.141,4.979,56.6,56.6,0,0,0-2.885,7.021,4.377,4.377,0,0,1-1.086,1.81,1.815,1.815,0,0,1-1.393.518,2.219,2.219,0,0,1-1.621-1.125,4.749,4.749,0,0,1-.619-2.521,34.763,34.763,0,0,1,1.268-8.223,27.825,27.825,0,0,0,.98-4.914,10.953,10.953,0,0,0-.256-3.439,4,4,0,0,0-1.152-2.056l-.234-.207.234-.194a4.977,4.977,0,0,1,2.393-1.216,4.448,4.448,0,0,1,2.395.207,4.592,4.592,0,0,1,1.9,1.345A3.655,3.655,0,0,1,13226.2,1092.719Z" transform="translate(-13047.046 -1074.723)" fill="#c40a04" fill-rule="evenodd"/>
    <path id="Path_2282" data-name="Path 2282" d="M26.726,1232.4c-.789,3.3-1.694,6.568-2.78,9.762-.957,2.844-1.965,5.689-3.194,8.43a34.889,34.889,0,0,1-4.125,7.124,24.323,24.323,0,0,1-3.582,3.8,7.317,7.317,0,0,1-2.625,1.422,9.2,9.2,0,0,1-3.026.426,8.392,8.392,0,0,1-6.478-2.922,6,6,0,0,1-.853-1.577L0,1258.674l.168-.129a46.488,46.488,0,0,0,14.559-18.192,99.493,99.493,0,0,0,5.224-13.874,78.944,78.944,0,0,0,2.508-12.736,6.127,6.127,0,0,1,1.914-3.53,7.812,7.812,0,0,1,2.974-1.836,3.381,3.381,0,0,1,2.832.143,2.456,2.456,0,0,1,1.009,1.887q.64,6.381,1.513,12.749c.582,4.228,1.228,8.455,2.056,12.632.582-2.224,1.2-4.435,1.875-6.646,1.164-3.788,2.314-7.577,3.7-11.287.776-2.056,1.616-4.1,2.586-6.09a41.584,41.584,0,0,1,3.142-5.521,2.653,2.653,0,0,1,1.448-1.086,3.252,3.252,0,0,1,2.185.142,5.99,5.99,0,0,1,2.082,1.448,7.037,7.037,0,0,1,1.965,5.379c-.207,2.676-.336,5.353-.336,8.043s.129,5.4.323,8.094c.091,1.37.22,2.741.375,4.112a70.32,70.32,0,0,0,1.345,7.861,42.627,42.627,0,0,0,2.263,7.085c1.681,3.918,4.5,7.939,8.12,10.279l.181.116-.065.207a5.773,5.773,0,0,1-2.5,3.013,10.524,10.524,0,0,1-4.448,1.59,7.212,7.212,0,0,1-6.219-2.095c-3.284-3.517-4.952-9.206-5.87-13.835a85.359,85.359,0,0,1-1.293-9.943c-.233-3.1-.336-6.219-.349-9.348-.543,1.9-1.034,3.814-1.5,5.728q-1.009,4.17-1.771,8.378c-.44,2.444-.815,4.9-1.1,7.357-.272,2.34-.465,4.693-.517,7.034a5.839,5.839,0,0,1-1.345,3.388,7.135,7.135,0,0,1-2.586,2,3.854,3.854,0,0,1-2.857.233,3,3,0,0,1-1.758-1.849,48.175,48.175,0,0,1-1.823-5.819c-.5-2.043-.918-4.124-1.267-6.206-.634-3.724-1.086-7.486-1.577-11.236C27,1235.013,26.855,1233.707,26.726,1232.4Z" transform="translate(0 -1189.451)" fill="#c40a04" fill-rule="evenodd"/>
    <path id="Path_2283" data-name="Path 2283" d="M7243.71,1940.048c.3-.53.595-1.047.919-1.565a23.371,23.371,0,0,1,1.8-2.573,17.94,17.94,0,0,1,3.09-3.155,7.086,7.086,0,0,1,3.209-1.473c.179-.027.359-.039.542-.052a5.5,5.5,0,0,1,4.149,1.344c2.639,2.457,2.651,7.629,2.25,10.952-.155,1.332-.348,2.651-.5,3.983-.066.659-.145,1.319-.182,1.978a9.19,9.19,0,0,0,.646,4.073,5.873,5.873,0,0,0,2.186,2.664,4.488,4.488,0,0,0,.465.258l.208.116-.076.22a3.963,3.963,0,0,1-1.422,1.823,5.918,5.918,0,0,1-2.33,1.021,4.289,4.289,0,0,1-4.822-1.965c-1.938-3.336-1.6-7.24-1.19-10.926.156-1.332.351-2.664.5-4q.117-.951.193-1.9a5.709,5.709,0,0,0-.062-1.707c-.025-.155-.118-.466-.3-.518-.285-.1-.829.427-1,.608-.529.569-1.049,1.164-1.523,1.784a29.538,29.538,0,0,0-2.421,3.5,45.233,45.233,0,0,0-3.386,6.892c-.222.581-.44,1.177-.673,1.772-.362.93-.738,1.861-1.163,2.779-.234.5-.479,1.008-.738,1.513-.245.453-.506.893-.789,1.319-.36.53-1,1.371-1.694,1.448a2.244,2.244,0,0,1-1.59-.4,4.27,4.27,0,0,1-1.229-2.715,52.561,52.561,0,0,1-.3-12.012c.091-1.28.247-2.573.428-3.84.128-.918.283-1.836.479-2.741a16.314,16.314,0,0,1,.594-2.25,5.583,5.583,0,0,1,2.094-2.612,8.215,8.215,0,0,1,2.988-1.344c.7-.142,1.781-.219,2.272.426a1.692,1.692,0,0,1-.038,1.747,16.879,16.879,0,0,0-1.008,2.9C7244.06,1938.289,7243.867,1939.168,7243.71,1940.048Z" transform="translate(-7142.717 -1906.251)" fill="#c40a04" fill-rule="evenodd"/>
    <path id="Path_2284" data-name="Path 2284" d="M11052.891,1443.742a6.237,6.237,0,0,1,1.773-1.474,6.487,6.487,0,0,1,2.144-.84,2.02,2.02,0,0,1,1.761.323,1.786,1.786,0,0,1,.244,1.823c-.119.375-.219.737-.337,1.1-.337,1.125-.619,2.276-.881,3.427-.283,1.293-.513,2.6-.7,3.918-.4,3.077-.864,9.3,2.211,11.249l.185.117-.078.207a2.849,2.849,0,0,1-.261.556,4.515,4.515,0,0,1-2.329,1.913,3.989,3.989,0,0,1-4.975-1.538,11.2,11.2,0,0,1-1.1-5.121,26.776,26.776,0,0,1-1.917,2.134,20.6,20.6,0,0,1-2.559,2.237,12.3,12.3,0,0,1-2.608,1.513,6.189,6.189,0,0,1-2.547.53,7.966,7.966,0,0,1-6.583-3.388,8.573,8.573,0,0,1-1.409-4.707,10.3,10.3,0,0,1,1.343-5.158c.173-.311.361-.608.561-.905a16.024,16.024,0,0,1,3.5-3.646,23.621,23.621,0,0,1,5.53-3.142,23,23,0,0,1,5.224-1.474A7.8,7.8,0,0,1,11052.891,1443.742Zm-1.128,3.569c-.154.039-.324.078-.489.116-.383.091-.789.194-1.174.31-3.467.97-8.2,4.332-9.866,7.577a3.984,3.984,0,0,0-.507,2.676,2.319,2.319,0,0,0,.427.814.92.92,0,0,0,.234.207,1.881,1.881,0,0,0,1.447-.078,8.953,8.953,0,0,0,2.029-1.086A21.17,21.17,0,0,0,11051.763,1447.311Z" transform="translate(-10890.274 -1422.734)" fill="#c40a04" fill-rule="evenodd"/>
    <path id="Path_2285" data-name="Path 2285" d="M9342.523,35.982a22.479,22.479,0,0,0-3.142,9.322,2.414,2.414,0,0,1-1.41,2.263,2.25,2.25,0,0,1-1.369,0,3.343,3.343,0,0,1-1.321-.776,4.369,4.369,0,0,1-1-1.409,4.722,4.722,0,0,1-.361-1.914c.094-4.59.375-9.141.88-13.706.453-4.112,1.072-8.185,1.77-12.27.558-3.271,1.191-6.542,1.477-9.865.143-1.655.192-3.931-.945-5.275l-.179-.194.205-.181A7,7,0,0,1,9340.4.3a4.121,4.121,0,0,1,3.05.465,3.51,3.51,0,0,1,1.514,2.327,11.176,11.176,0,0,1,.13,2.7,32.4,32.4,0,0,1-.377,3.349c-.194,1.293-.439,2.586-.67,3.879-.259,1.422-.53,2.845-.777,4.267-.361,2.146-.8,4.28-1.256,6.4-.335,1.539-.672,3.077-1,4.616,3.181-4.978,7.851-9.361,13.537-11.171a5.49,5.49,0,0,1,4.438.711,4.946,4.946,0,0,1,1.484,1.358,2.078,2.078,0,0,1,.419,1.59,1.982,1.982,0,0,1-1.5,1.358,30.649,30.649,0,0,0-12.437,8.016,26.05,26.05,0,0,0,3.166,7.435A29.378,29.378,0,0,0,9355,43.663a17.711,17.711,0,0,0,5.541,3.685c.545.207,1.141.569,1.219,1.2a1.428,1.428,0,0,1-.336,1.034,4.46,4.46,0,0,1-1.009.892,8.882,8.882,0,0,1-3.144,1.215,6.121,6.121,0,0,1-3.568-.259C9347.814,48.809,9343.934,42.137,9342.523,35.982Z" transform="translate(-9213.241 -0.195)" fill="#c40a04" fill-rule="evenodd"/>
    <path id="Path_2286" data-name="Path 2286" d="M4939.284,2403.614c-.128.233-.257.466-.4.7-2.482,4.268-6.244,10.667-11.9,10.667-3.879,0-6.516-2.625-7.331-6.284a13.214,13.214,0,0,1,.156-6.038,18.806,18.806,0,0,1,1.537-4.048c3.492-6.723,9.608-12.3,17.21-13.731a2.69,2.69,0,0,1,1.021.013,5.293,5.293,0,0,1,1.978-2.121,6.247,6.247,0,0,1,2.147-.932,2.317,2.317,0,0,1,1.875.259,1.963,1.963,0,0,1,.53,1.875q-.253,1.765-.426,3.53c-.143,1.435-.259,2.871-.362,4.305-.1,1.461-.181,2.909-.221,4.371-.038,1.177-.065,2.379,0,3.568.04.8.1,1.6.207,2.406a13.623,13.623,0,0,0,.388,1.9,5.865,5.865,0,0,0,1.4,2.6,5.707,5.707,0,0,0,1.849,1.229l.207.09-.051.22a1.861,1.861,0,0,1-.142.427,5.172,5.172,0,0,1-7.617,1.384C4939.776,2408.424,4939.375,2405.864,4939.284,2403.614Zm-10.577,3.673h0c.014-.013.026-.026.026-.039a.561.561,0,0,0,.09-.091,3.529,3.529,0,0,1,.285-.3c.117-.129.247-.258.363-.4.348-.4.7-.827,1.021-1.253a41.579,41.579,0,0,0,3.789-6.129,65.624,65.624,0,0,0,3.814-8.883c-4.461,1.966-8.688,6.93-10.771,11.158a12.216,12.216,0,0,0-1.253,3.53,7.333,7.333,0,0,0-.117,1.409c.025.543.155,1.6.75,1.862C4927.338,2408.424,4928.269,2407.687,4928.707,2407.287Z" transform="translate(-4855.771 -2350.967)" fill="#c40a04" fill-rule="evenodd"/>
  </g>
</svg>
