<?xml version="1.0" standalone="no"?>
<!DOCTYPE svg PUBLIC "-//W3C//DTD SVG 1.1//EN" "http://www.w3.org/Graphics/SVG/1.1/DTD/svg11.dtd" >
<svg>
<metadata>
Created by FontForge 20090622 at Fri Nov 22 09:58:16 2019
 By deploy user
Copyright 2016 Google Inc. All Rights Reserved.
</metadata>
<defs>
<font id="NotoSansArmenian-Bold" horiz-adv-x="641" >
  <font-face 
    font-family="Noto Sans Armenian"
    font-weight="700"
    font-stretch="normal"
    units-per-em="1000"
    panose-1="2 11 8 2 4 5 4 2 2 4"
    ascent="800"
    descent="-200"
    bbox="-19 -249 1530 854"
    underline-thickness="50"
    underline-position="-50"
    unicode-range="U+000D-U+FB17"
  />
<missing-glyph horiz-adv-x="364" 
d="M33 0v666h265v-666h-265zM66 33h199v600h-199v-600z" />
    <glyph glyph-name="uniFB13" unicode="&#x574;&#x576;" horiz-adv-x="1265" 
d="M298 606q0 64 45 109t145 45h244l116 -41l-21 -42q-9 -18 -9 -41q0 -19 11.5 -32t44.5 -28l42 -19v-16q-89 -184 -89 -307q0 -71 26.5 -102t72.5 -31q114 0 114 171v228h139v-500h-109l-17 68h-8q-20 -35 -58.5 -56.5t-94.5 -21.5q-97 0 -152 57t-55 161q0 74 29.5 147.5
t70.5 138.5l-32 17q-67 35 -67 100q0 25 4 44h-211q-19 0 -30 -12t-11 -27q0 -22 15.5 -44t38.5 -47q38 -42 50.5 -80.5t12.5 -93.5v-351h-109l-17 68h-8q-20 -35 -58.5 -56.5t-94.5 -21.5q-88 0 -137.5 48t-49.5 138v324h139v-296q0 -103 86 -103q110 0 110 171v78
q0 32 -12 64t-46 71q-32 36 -46 67.5t-14 53.5z" />
    <glyph glyph-name="uniFB14" unicode="&#x574;&#x565;" horiz-adv-x="1272" 
d="M298 606q0 64 45 109t145 45h364v-260h351v-105h-351v-191q0 -103 86 -103q110 0 110 171v32h139v-304h-109l-17 68h-8q-20 -35 -58.5 -56.5t-94.5 -21.5q-88 0 -137.5 48t-49.5 138v479h-234q-19 0 -30 -12t-11 -27q0 -22 15.5 -44t38.5 -47q38 -42 50.5 -80.5
t12.5 -93.5v-351h-109l-17 68h-8q-20 -35 -58.5 -56.5t-94.5 -21.5q-88 0 -137.5 48t-49.5 138v324h139v-296q0 -103 86 -103q110 0 110 171v78q0 32 -12 64t-46 71q-32 36 -46 67.5t-14 53.5z" />
    <glyph glyph-name="uniFB15" unicode="&#x574;&#x56b;" horiz-adv-x="1272" 
d="M298 606q0 64 45 109t145 45h367v-234q0 -48 -6 -93h7q21 35 56 56t91 21q89 0 138 -47.5t49 -137.5v-325h-139v296q0 103 -86 103q-110 0 -110 -171v-467h-139v894h-237q-41 0 -41 -39q0 -22 15.5 -44t38.5 -47q38 -42 50.5 -80.5t12.5 -93.5v-351h-109l-17 68h-8
q-20 -35 -58.5 -56.5t-94.5 -21.5q-88 0 -137.5 48t-49.5 138v324h139v-296q0 -103 86 -103q110 0 110 171v78q0 32 -12 64t-46 71q-32 36 -46 67.5t-14 53.5z" />
    <glyph glyph-name="uniFB16" unicode="&#x57e;&#x576;" horiz-adv-x="1260" 
d="M416 272v488h315l116 -41l-21 -42q-9 -18 -9 -41q0 -19 11.5 -32t44.5 -28l42 -19v-16q-41 -77 -65 -155.5t-24 -151.5q0 -71 26 -102t73 -31q114 0 114 171v228h139v-500h-109l-17 68h-8q-20 -35 -59 -56.5t-94 -21.5q-97 0 -152 57t-55 161q0 74 28.5 146.5t70.5 140.5
l-31 16q-67 35 -67 100q0 25 4 44h-134v-789h156v-105h-295v240q0 36 8 67h-7q-21 -35 -57 -56.5t-92 -21.5q-88 0 -137.5 48t-49.5 138v324h139v-296q0 -103 86 -103q110 0 110 171z" />
    <glyph glyph-name="uniFB17" unicode="&#x574;&#x56d;" horiz-adv-x="1612" 
d="M298 606q0 64 45 109t145 45h377v-234q0 -48 -6 -93h7q20 35 55 56t90 21q89 0 137.5 -47.5t48.5 -137.5v-121q0 -103 85 -103q108 0 108 171v228h140v-500h-110l-17 68h-7q-21 -35 -58.5 -56.5t-93.5 -21.5q-88 0 -137 48t-49 138v120q0 103 -85 103q-108 0 -108 -171
v-467h-139v894h-247q-41 0 -41 -39q0 -22 15.5 -44t38.5 -47q38 -42 50.5 -80.5t12.5 -93.5v-351h-109l-17 68h-8q-20 -35 -58.5 -56.5t-94.5 -21.5q-88 0 -137.5 48t-49.5 138v324h139v-296q0 -103 86 -103q110 0 110 171v78q0 32 -12 64t-46 71q-32 36 -46 67.5t-14 53.5z
" />
    <glyph glyph-name="uni0548_uni0552" unicode="&#x548;&#x552;" horiz-adv-x="1349" 
d="M85 0v462q0 112 71.5 187t213.5 75q135 0 206.5 -72t71.5 -192v-460h-141v440q0 91 -35.5 128.5t-105.5 37.5q-140 0 -140 -166v-440h-141zM796 0v714h141v-159h42q78 0 115 -27t82 -115q38 -74 56.5 -91t45.5 -17h21v-118h-36q-113 0 -172 118q-42 85 -62.5 108.5
t-59.5 23.5h-32v-437h-141z" />
    <glyph glyph-name="uni0578_uni0582" unicode="&#x578;&#x582;" horiz-adv-x="1012" 
d="M85 0v500h109l17 -67h8q20 35 58.5 56t94.5 21q88 0 137.5 -47.5t49.5 -137.5v-325h-139v296q0 103 -86 103q-110 0 -110 -171v-228h-139zM697 0v500h139v-395h155v-105h-294z" />
    <glyph glyph-name=".notdef" horiz-adv-x="364" 
d="M33 0v666h265v-666h-265zM66 33h199v600h-199v-600z" />
    <glyph glyph-name=".null" horiz-adv-x="0" 
 />
    <glyph glyph-name="nonmarkingreturn" horiz-adv-x="333" 
 />
    <glyph glyph-name="NULL" horiz-adv-x="0" 
 />
    <glyph glyph-name="NULL" horiz-adv-x="0" 
 />
    <glyph glyph-name="CR" unicode="&#xd;" horiz-adv-x="260" 
 />
    <glyph glyph-name="space" unicode=" " horiz-adv-x="260" 
 />
    <glyph glyph-name="hyphen" unicode="-" horiz-adv-x="322" 
d="M30 207v122h262v-122h-262z" />
    <glyph glyph-name="uni00A0" unicode="&#xa0;" horiz-adv-x="260" 
 />
    <glyph glyph-name="uni0531" unicode="&#x531;" horiz-adv-x="851" 
d="M650 128q-17 0 -28 -2q-31 -62 -95.5 -99t-162.5 -37q-135 0 -206.5 72t-71.5 192v460h141v-439q0 -91 35.5 -129t105.5 -38q140 0 140 167v439h141v-462q0 -11 -1 -21q13 2 24 2q80 0 121.5 -42t41.5 -137v-54h-122v46q0 46 -15.5 64t-47.5 18z" />
    <glyph glyph-name="uni0532" unicode="&#x532;" horiz-adv-x="717" 
d="M651 233h-424v-233h-141v462q0 112 70.5 187t212.5 75q278 0 278 -292h-141q0 93 -33 133.5t-107 40.5q-139 0 -139 -167v-88h424v-118z" />
    <glyph glyph-name="uni0533" unicode="&#x533;" horiz-adv-x="773" 
d="M748 235h-141v-235h-141v235h-136q-136 0 -203.5 64t-67.5 181q0 112 73.5 178t200.5 66q274 0 274 -297v-74h141v-118zM347 353h119v64q0 189 -133 189q-128 0 -128 -126q0 -63 31 -95t111 -32z" />
    <glyph glyph-name="uni0534" unicode="&#x534;" horiz-adv-x="780" 
d="M753 233h-144v-233h-141v440q0 91 -35 128.5t-104 37.5q-72 0 -105 -41t-33 -132h-141q0 133 70 212t212 79q135 0 206 -71.5t71 -192.5v-109h144v-118z" />
    <glyph glyph-name="uni0535" unicode="&#x535;" horiz-adv-x="717" 
d="M647 282q0 -292 -278 -292q-142 0 -212.5 75t-70.5 187v462h141v-134h424v-118h-424v-187q0 -167 139 -167q74 0 107 40.5t33 133.5h141z" />
    <glyph glyph-name="uni0536" unicode="&#x536;" horiz-adv-x="693" 
d="M186 71v-71h-118v244h118v-55h13q129 2 205 112q-46 -12 -96 -12q-104 0 -174.5 61.5t-70.5 158.5t73.5 158.5t192.5 61.5q120 0 191.5 -64t71.5 -174v-4q-2 -91 -39.5 -167.5t-98.5 -129.5h77q64 0 96.5 -27.5t32.5 -96.5v-66h-121v27q0 27 -13.5 35.5t-48.5 8.5h-291z
M328 401q123 0 123 108t-123 108q-124 0 -124 -108t124 -108z" />
    <glyph glyph-name="uni0537" unicode="&#x537;" horiz-adv-x="632" 
d="M568 -58v-88h-141v74q0 72 -68 72h-268v714h141v-211h334v-118h-334v-267h145q191 0 191 -176z" />
    <glyph glyph-name="uni0538" unicode="&#x538;" horiz-adv-x="717" 
d="M651 118v-118h-565v462q0 112 70.5 187t212.5 75q278 0 278 -292h-141q0 93 -33 133.5t-107 40.5q-139 0 -139 -167v-321h424z" />
    <glyph glyph-name="uni0539" unicode="&#x539;" horiz-adv-x="924" 
d="M227 411v-411h-141v411q0 137 88 225t255 88q301 0 340 -225h134v-118h-128q0 -121 -61 -186t-158 -65q-98 0 -155.5 53t-57.5 135q0 86 57.5 133.5t169.5 47.5h57q-29 107 -198 107q-202 0 -202 -195zM635 381h-64q-36 0 -59 -15.5t-23 -46.5q0 -30 14.5 -50.5
t53.5 -20.5q35 0 56.5 28t21.5 105z" />
    <glyph glyph-name="uni053A" unicode="&#x53a;" horiz-adv-x="772" 
d="M347 382q-142 0 -142 -143q0 -131 129 -131q135 0 135 189v85h-122zM335 -10q-128 0 -202 67.5t-74 181.5q0 65 30.5 124.5t91 98t149.5 38.5h139v214h141v-214h138v-118h-138v-87q0 -305 -275 -305z" />
    <glyph glyph-name="uni053B" unicode="&#x53b;" horiz-adv-x="727" 
d="M402 396q-74 0 -122 -41t-48 -123v-232h-141v714h141v-201q0 -58 -7 -110h7q30 56 83 83.5t122 27.5q111 0 175.5 -69t64.5 -183v-59h-141v49q0 144 -134 144z" />
    <glyph glyph-name="uni053C" unicode="&#x53c;" horiz-adv-x="446" 
d="M91 0v714h141v-596h190v-118h-331z" />
    <glyph glyph-name="uni053D" unicode="&#x53d;" horiz-adv-x="910" 
d="M232 714v-153h305v-167q0 -130 93 -130q47 0 69 30t22 100v167h141v-174q0 -241 -232 -241q-234 0 -234 232v65h-164v-443h-141v714h141z" />
    <glyph glyph-name="uni053E" unicode="&#x53e;" horiz-adv-x="736" 
d="M677 262q0 -122 -87.5 -197t-224.5 -75t-220 75.5t-83 196.5q0 76 37 146t100 128q-93 38 -122 76t-29 102h141q0 -31 18.5 -49t100.5 -48q83 50 179 78.5t190 28.5v-118q-114 0 -223 -45q130 -60 176.5 -132t46.5 -167zM204 264q0 -72 43 -114t118 -42q78 0 124 40
t46 113q0 75 -49.5 130t-158.5 97q-56 -45 -89.5 -102t-33.5 -122z" />
    <glyph glyph-name="uni053F" unicode="&#x53f;" horiz-adv-x="741" 
d="M654 618v-618h-141v189q0 18 1.5 50.5t5.5 60.5h-5q-70 -98 -209 -98q-104 0 -167 58t-63 182v272h141v-238q0 -156 132 -156q92 0 128 58.5t36 163.5v76h141z" />
    <glyph glyph-name="uni0540" unicode="&#x540;" horiz-adv-x="633" 
d="M563 -48v-72h-141v52q0 71 -82 93l-303 79l109 394q32 116 94 171t178 55q108 0 191 -71l-79 -98q-51 51 -112 51q-60 0 -86 -29.5t-48 -110.5l-80 -282l168 -44q109 -28 150 -73t41 -115z" />
    <glyph glyph-name="uni0541" unicode="&#x541;" horiz-adv-x="669" 
d="M180 124q0 -34 56 -34q64 0 115 47q-67 24 -111 24q-60 0 -60 -37zM194 510q0 -104 120 -104q33 0 72.5 6t68.5 16v22q0 76 -35.5 119t-105.5 43q-120 0 -120 -102zM636 -19q-84 61 -171 105q-45 -44 -103 -70t-126 -26q-99 0 -143 34t-44 100q0 67 51 102t138 35
q91 0 176 -29q18 42 29 94q-35 -11 -72 -16.5t-86 -5.5q-99 0 -165.5 54t-66.5 152q0 94 72.5 154t185.5 60q133 0 209 -76t76 -222q0 -137 -63 -249q48 -27 103 -66v-130z" />
    <glyph glyph-name="uni0542" unicode="&#x542;" horiz-adv-x="780" 
d="M753 118v-118h-305v440q0 91 -34 128.5t-95 37.5q-65 0 -96.5 -41t-31.5 -132h-141q0 133 68.5 212t203.5 79q128 0 197.5 -71.5t69.5 -192.5v-342h164z" />
    <glyph glyph-name="uni0543" unicode="&#x543;" horiz-adv-x="722" 
d="M654 118v-118h-402q-120 0 -161 53t-41 122q0 89 38.5 181t109.5 168l-143 27v118l261 -47q71 46 158 73t188 29v-118q-97 -2 -183 -35q103 -56 139 -167t36 -286zM279 118h232v54q0 140 -36 215t-131 107q-72 -59 -112 -136.5t-40 -156.5q0 -83 87 -83z" />
    <glyph glyph-name="uni0544" unicode="&#x544;" horiz-adv-x="813" 
d="M370 -10q-142 0 -213 75t-71 187v462h141v-438q0 -168 139 -168q70 0 106 37.5t36 128.5v440h285v-118h-144v-342q0 -121 -72 -192.5t-207 -71.5z" />
    <glyph glyph-name="uni0545" unicode="&#x545;" horiz-adv-x="635" 
d="M563 547q0 -72 -46 -116t-124 -55v-3q192 -19 192 -171q0 -93 -69.5 -152.5t-202.5 -59.5q-73 0 -138.5 10t-106.5 29v126q40 -23 106 -35t121 -12q75 0 109.5 28t34.5 76q0 52 -45.5 76t-177.5 24h-174v118h149q131 0 181 25.5t50 69.5q0 37 -27 59t-92 22
q-108 0 -178 -59l-62 99q47 36 115.5 57t154.5 21q110 0 170 -49.5t60 -127.5z" />
    <glyph glyph-name="uni0546" unicode="&#x546;" horiz-adv-x="672" 
d="M336 -10q-127 0 -202 72t-75 200q0 82 28 160t75 144q-107 22 -107 165v29h141v-30q0 -56 20.5 -73.5t65.5 -17.5h55l8 -15q-54 -61 -99.5 -164.5t-45.5 -197.5q0 -154 136 -154q132 0 132 148v164h141v-173q0 -121 -73.5 -189t-199.5 -68z" />
    <glyph glyph-name="uni0547" unicode="&#x547;" horiz-adv-x="682" 
d="M618 250q0 -122 -74.5 -191t-201.5 -69t-203 73t-76 201q0 84 47.5 173.5t123.5 146.5l-169 23l15 117l533 -73l-15 -117l-200 27q-91 -59 -142.5 -139t-51.5 -158q0 -74 36.5 -115t101.5 -41q135 0 135 151v24h141v-33z" />
    <glyph glyph-name="uni0548" unicode="&#x548;" horiz-adv-x="734" 
d="M85 0v462q0 112 71.5 187t213.5 75q135 0 206.5 -72t71.5 -192v-460h-141v440q0 91 -35.5 128.5t-105.5 37.5q-140 0 -140 -166v-440h-141z" />
    <glyph glyph-name="uni0549" unicode="&#x549;" horiz-adv-x="647" 
d="M555 117v-118q-125 1 -258 63.5t-249 164.5l80 94q71 -65 163 -117q79 68 120.5 127t41.5 129q0 68 -31.5 107t-97.5 39q-72 0 -99.5 -36.5t-27.5 -95.5v-9h-141v18q0 111 70 176t198 65q130 0 200 -69.5t70 -189.5q0 -87 -52.5 -168t-132.5 -149q82 -31 146 -31z" />
    <glyph glyph-name="uni054A" unicode="&#x54a;" horiz-adv-x="857" 
d="M771 460v-460h-141v439q0 74 -35 112.5t-103 49.5v-436h-142v436q-137 -23 -137 -162v-109h-141v132q0 112 88.5 187t265.5 75q167 0 256 -72t89 -192z" />
    <glyph glyph-name="uni054B" unicode="&#x54b;" horiz-adv-x="670" 
d="M161 71v-71h-118v235h118v-46h34q8 1 23.5 6t22.5 10q0 19 -12.5 42t-54.5 51q-61 40 -86 86t-25 112q0 104 73.5 166t193.5 62q118 0 192.5 -59.5t74.5 -176.5q0 -86 -41.5 -155t-145.5 -143l-162 -1l262 1q64 0 96.5 -27.5t32.5 -96.5v-66h-131v27q0 27 -13.5 35.5
t-48.5 8.5h-285zM344 261q51 41 81.5 97t30.5 122q0 132 -127 132q-62 0 -93.5 -32t-31.5 -88q0 -36 15 -68t52 -61q34 -25 49.5 -48t23.5 -54z" />
    <glyph glyph-name="uni054C" unicode="&#x54c;" horiz-adv-x="818" 
d="M227 439v-439h-141v462q0 112 70.5 187t212.5 75q136 0 207 -72t71 -192v-109h144v-118h-144v-233h-141v439q0 91 -35.5 129t-104.5 38q-139 0 -139 -167z" />
    <glyph glyph-name="uni054D" unicode="&#x54d;" horiz-adv-x="734" 
d="M649 714v-462q0 -112 -71.5 -187t-213.5 -75q-135 0 -206.5 72t-71.5 192v460h141v-440q0 -91 35.5 -128.5t105.5 -37.5q140 0 140 166v440h141z" />
    <glyph glyph-name="uni054E" unicode="&#x54e;" horiz-adv-x="816" 
d="M790 118v-118h-295v136q0 17 1.5 49.5t5.5 60.5h-6q-71 -95 -207 -95q-104 0 -167 57.5t-63 182.5v76h141v-42q0 -156 132 -156q92 0 127.5 58t35.5 163v224h141v-596h154z" />
    <glyph glyph-name="uni054F" unicode="&#x54f;" horiz-adv-x="593" 
d="M543 197q0 -96 -70 -151.5t-196 -55.5q-65 0 -123 14t-107 37v127q67 -32 125 -46t101 -14q72 0 101.5 22t29.5 60t-26 63.5t-120 58.5q-109 38 -156 76t-47 135q0 95 69.5 148t188.5 53q100 0 216 -49l-35 -114q-57 25 -101.5 35t-85.5 10q-114 0 -114 -78
q0 -34 24.5 -56.5t112.5 -51.5q111 -37 162 -88t51 -135z" />
    <glyph glyph-name="uni0550" unicode="&#x550;" horiz-adv-x="675" 
d="M86 0v462q0 112 68 187t204 75q267 0 267 -292h-141q0 93 -30.5 133.5t-98.5 40.5q-128 0 -128 -167v-439h-141z" />
    <glyph glyph-name="uni0551" unicode="&#x551;" horiz-adv-x="653" 
d="M602 207q0 -103 -81.5 -160t-223.5 -57q-59 0 -119.5 14t-102.5 34v126q60 -29 115.5 -42.5t102.5 -13.5q167 0 167 101q0 86 -153 125l-210 -66l-37 106l88 27q-95 54 -95 149q0 81 72.5 127.5t181.5 46.5q122 0 187.5 -46.5t65.5 -127.5q0 -50 -29 -85.5t-85 -62.5v-5
q80 -23 118 -74.5t38 -115.5zM194 541q0 -28 19.5 -48.5t89.5 -45.5l20 6q96 29 96 88q0 35 -30.5 53t-81.5 18t-82 -18t-31 -53z" />
    <glyph glyph-name="uni0552" unicode="&#x552;" horiz-adv-x="632" 
d="M91 0v714h141v-159h42q78 0 115 -27t82 -115q38 -74 56.5 -91t45.5 -17h21v-118h-36q-113 0 -172 118q-42 85 -62.5 108.5t-59.5 23.5h-32v-437h-141z" />
    <glyph glyph-name="uni0553" unicode="&#x553;" horiz-adv-x="850" 
d="M489 714v-78q172 -4 244 -81t72 -184q0 -63 -29.5 -124.5t-98.5 -103t-188 -43.5v-100h-127v100q-120 2 -189 43.5t-98 103t-29 123.5q0 106 72 184t244 82v78h127zM362 526q-100 -4 -141.5 -46t-41.5 -109q0 -72 44.5 -115t138.5 -46v316zM489 526v-316q95 3 139 46
t44 116q0 66 -41 108t-142 46z" />
    <glyph glyph-name="uni0554" unicode="&#x554;" horiz-adv-x="653" 
d="M596 105h-351v-105h-141v105h-94v118h94v216q0 138 70.5 211.5t180.5 73.5q113 0 177 -60t64 -154q0 -97 -64.5 -151t-192.5 -54h-94v-82h351v-118zM245 423h91q52 0 85 21.5t33 64.5q0 42 -21 69.5t-76 27.5q-58 0 -85 -39t-27 -144z" />
    <glyph glyph-name="uni0555" unicode="&#x555;" horiz-adv-x="793" 
d="M734 358q0 -166 -82.5 -267t-255.5 -101t-255.5 101t-82.5 268q0 166 83 266t256 100q172 0 254.5 -100t82.5 -267zM207 358q0 -116 45 -183t144 -67q101 0 145.5 67t44.5 183t-44.5 182.5t-143.5 66.5q-100 0 -145.5 -66.5t-45.5 -182.5z" />
    <glyph glyph-name="uni0556" unicode="&#x556;" horiz-adv-x="776" 
d="M376 -10q-92 0 -173.5 14.5t-153.5 46.5v126q134 -63 259 -69v220q-140 18 -192 67t-52 128q0 87 64 139t177 52h144v-287q158 -17 218 -68.5t60 -140.5q0 -119 -90.5 -173.5t-260.5 -54.5zM308 440v156h-15q-51 0 -71 -20t-20 -54t23.5 -54t82.5 -28zM449 108
q140 3 140 108q0 52 -40.5 72t-99.5 27v-207z" />
    <glyph glyph-name="uni0559" unicode="&#x559;" horiz-adv-x="234" 
d="M188 435q-88 1 -130.5 42.5t-42.5 105.5q0 111 137 177l49 -68q-36 -24 -50 -44t-14 -44q0 -51 51 -51v-118z" />
    <glyph glyph-name="uni055A" unicode="&#x55a;" horiz-adv-x="234" 
d="M46 760q88 -1 130 -42.5t42 -105.5q0 -111 -136 -177l-50 68q65 42 65 88q0 51 -51 51v118z" />
    <glyph glyph-name="uni055B" unicode="&#x55b;" horiz-adv-x="279" 
d="M211 814l9 -14q-25 -91 -70 -200h-101q19 79 29 130.5t15 83.5h118z" />
    <glyph glyph-name="uni055C" unicode="&#x55c;" horiz-adv-x="302" 
d="M27 603q0 40 10.5 67t56.5 56q40 26 51.5 39t11.5 37v12h118q0 -56 -13 -81t-61 -53q-36 -21 -46 -34.5t-10 -30.5v-12h-118z" />
    <glyph glyph-name="uni055D" unicode="&#x55d;" horiz-adv-x="279" 
d="M68 814h118q4 -32 14.5 -83t29.5 -131h-101q-23 57 -40 105t-30 95z" />
    <glyph glyph-name="uni055E" unicode="&#x55e;" horiz-adv-x="441" 
d="M52 594q3 101 60 167.5t146 66.5q61 0 98.5 -30t37.5 -86q0 -54 -38 -86t-115 -33v86q50 0 50 30q0 25 -39 25q-40 0 -64 -32t-27 -108h-109z" />
    <glyph glyph-name="uni055F" unicode="&#x55f;" horiz-adv-x="402" 
d="M184 602q-146 0 -146 123q0 59 41 94t101 35q40 0 85 -15l-27 -90q-17 7 -29 9t-19 2q-43 0 -43 -29q0 -22 11.5 -28.5t34.5 -6.5h193v-94h-202z" />
    <glyph glyph-name="uni0561" unicode="&#x561;" horiz-adv-x="973" 
d="M267 -9q-186 0 -186 183v326h139v-295q0 -51 23.5 -77t61.5 -26q109 0 109 170v228h140v-295q0 -51 24 -77t62 -26q108 0 108 170v228h139v-500h-108l-17 67h-8q-20 -34 -58 -55t-94 -21q-116 0 -163 80h-7q-21 -35 -66.5 -57.5t-98.5 -22.5z" />
    <glyph glyph-name="uni0562" unicode="&#x562;" 
d="M575 0h-351v-239h-139v739h109l17 -67h8q20 35 58.5 56t94.5 21q88 0 137.5 -47.5t49.5 -137.5v-127h-139v98q0 103 -86 103q-110 0 -110 -171v-123h351v-105z" />
    <glyph glyph-name="uni0563" unicode="&#x563;" horiz-adv-x="709" 
d="M410 -239v211q0 43 7 96h-9q-46 -77 -145 -77q-97 0 -151 70.5t-54 187.5q0 121 55.5 191t153.5 70t150 -77h6l17 67h109v-395h155v-105h-155v-239h-139zM302 102q108 0 108 146v8q0 143 -109 143q-101 0 -101 -151q0 -146 102 -146z" />
    <glyph glyph-name="uni0564" unicode="&#x564;" horiz-adv-x="719" 
d="M420 -239v535q0 103 -86 103q-110 0 -110 -171v-228h-139v500h109l17 -67h8q20 35 58.5 56t94.5 21q88 0 137.5 -47.5t49.5 -137.5v-220h154v-105h-154v-239h-139z" />
    <glyph glyph-name="uni0565" unicode="&#x565;" 
d="M421 68q-20 -35 -58.5 -56.5t-94.5 -21.5q-88 0 -137.5 48t-49.5 138v584h139v-260h351v-105h-351v-191q0 -103 86 -103q110 0 110 171v32h139v-304h-109l-17 68h-8z" />
    <glyph glyph-name="uni0566" unicode="&#x566;" horiz-adv-x="644" 
d="M410 -239v211q0 43 7 96h-9q-46 -77 -145 -77q-97 0 -151 70.5t-54 187.5q0 121 55.5 191t153.5 70t150 -77h6l17 67h109v-634h135v-105h-274zM302 102q108 0 108 146v8q0 143 -109 143q-101 0 -101 -151q0 -146 102 -146z" />
    <glyph glyph-name="uni0567" unicode="&#x567;" horiz-adv-x="514" 
d="M333 -75q0 41 -11.5 58t-50.5 17h-186v760h139v-260h247v-105h-247v-290h86q89 0 125.5 -35t36.5 -121v-34h-139v10z" />
    <glyph glyph-name="uni0568" unicode="&#x568;" 
d="M575 -134v-105h-490v739h109l17 -67h8q20 35 58.5 56t94.5 21q88 0 137.5 -47.5t49.5 -137.5v-325h-139v296q0 103 -86 103q-110 0 -110 -171v-362h351z" />
    <glyph glyph-name="uni0569" unicode="&#x569;" horiz-adv-x="750" 
d="M218 433q25 37 74.5 57t104.5 20q133 0 198 -62.5t74 -172.5q48 -12 86 -29l-31 -93q-25 10 -58 19q-14 -82 -65.5 -132t-139.5 -50q-82 0 -130.5 43t-48.5 109q0 71 51 113.5t143 42.5q23 0 48 -2q-21 103 -137 103q-76 0 -119.5 -36t-43.5 -107v-495h-139v739h109
l17 -67h7zM404 143q0 -53 57 -53q35 0 50 22.5t17 83.5q-28 2 -51 2q-73 0 -73 -55z" />
    <glyph glyph-name="uni056A" unicode="&#x56a;" horiz-adv-x="671" 
d="M547 245q0 -113 -57.5 -184t-182.5 -71t-187 71t-62 184q0 125 70 195t196 70q43 0 84 -5v255h139v-285q62 -20 128 -53l-30 -105q-47 24 -98 42v-114zM200 248q0 -65 26 -106t81 -41q56 0 78.5 41t22.5 106v145q-43 6 -84 6q-124 0 -124 -151z" />
    <glyph glyph-name="uni056B" unicode="&#x56b;" 
d="M224 760v-234q0 -48 -6 -93h7q21 35 56 56t91 21q89 0 138 -47.5t49 -137.5v-325h-139v296q0 103 -86 103q-110 0 -110 -171v-467h-139v999h139z" />
    <glyph glyph-name="uni056C" unicode="&#x56c;" horiz-adv-x="319" 
d="M85 -239v740h139v-635h135v-105h-274z" />
    <glyph glyph-name="uni056D" unicode="&#x56d;" horiz-adv-x="976" 
d="M751 500h139v-500h-109l-17 68h-8q-20 -35 -58 -56.5t-94 -21.5q-88 0 -137.5 48t-49.5 138v120q0 103 -85 103q-108 0 -108 -171v-467h-139v999h139v-234q0 -48 -6 -93h7q20 35 54.5 56t90.5 21q88 0 137.5 -47.5t49.5 -137.5v-121q0 -103 85 -103q109 0 109 171v228z
" />
    <glyph glyph-name="uni056E" unicode="&#x56e;" horiz-adv-x="633" 
d="M555 241q0 -110 -65 -180t-186 -70q-110 0 -178 69.5t-68 179.5q0 106 67 183.5t187 77.5h9q-46 69 -112 136l173 133l71 -93l-64 -49q50 -65 86 -127h136v-105h-86q30 -82 30 -155zM305 102q108 0 108 136q0 75 -35 158h-41q-71 0 -104 -45.5t-33 -116.5
q0 -132 105 -132z" />
    <glyph glyph-name="uni056F" unicode="&#x56f;" 
d="M555 -239h-139v240q0 36 8 67h-7q-21 -35 -57 -56.5t-92 -21.5q-88 0 -137.5 48t-49.5 138v584h139v-556q0 -103 86 -103q110 0 110 171v227h139v-738z" />
    <glyph glyph-name="uni0570" unicode="&#x570;" horiz-adv-x="602" 
d="M395 0v117q0 69 -24.5 99t-70.5 30q-34 0 -60 -14.5t-42 -59.5l-138 23v79q0 254 90.5 373t219.5 119q105 0 182 -73l-83 -90q-44 50 -99 50q-64 0 -117.5 -80t-53.5 -276l5 -1q18 26 52 44.5t82 18.5q91 0 143.5 -54.5t52.5 -164.5v-140h-139z" />
    <glyph glyph-name="uni0571" unicode="&#x571;" horiz-adv-x="666" 
d="M431 55q-23 -24 -70.5 -44.5t-114.5 -20.5q-89 0 -143.5 47.5t-54.5 141.5q0 80 45 142t169 138q80 49 104 69.5t24 32.5q0 8 -22 16.5t-110 18.5q-78 10 -115.5 24.5t-48.5 46t-11 93.5h118q0 -30 25.5 -43t119.5 -23q131 -14 168 -40t37 -67q0 -34 -13.5 -59.5
t-72.5 -69.5l99 -353h84v-105h-199l-15 55h-3zM189 191q0 -90 95 -90q73 0 126 37l-66 236v0q-77 -51 -116 -93.5t-39 -89.5z" />
    <glyph glyph-name="uni0572" unicode="&#x572;" horiz-adv-x="654" 
d="M420 -239v535q0 103 -86 103q-110 0 -110 -171v-228h-139v500h109l17 -67h8q20 35 58.5 56t93.5 21q89 0 138.5 -47.5t49.5 -137.5v-459h135v-105h-274z" />
    <glyph glyph-name="uni0573" unicode="&#x573;" horiz-adv-x="619" 
d="M421 66q-21 -34 -59 -55t-93 -21q-189 0 -189 247q0 89 15 168q-36 1 -78 1v105q57 0 105 -2q45 126 122.5 191.5t160.5 65.5q95 0 164 -56l-73 -93q-41 38 -91 38q-37 0 -76.5 -41t-67.5 -116q120 -16 183.5 -53.5t87 -101t23.5 -157.5v-186h-110l-17 66h-7zM219 237
q0 -75 23.5 -105.5t63.5 -30.5q53 0 81 22.5t28 82.5q0 78 -30.5 123.5t-151.5 63.5q-14 -73 -14 -156z" />
    <glyph glyph-name="uni0574" unicode="&#x574;" horiz-adv-x="650" 
d="M555 351v-351h-109l-17 68h-8q-20 -35 -58.5 -56.5t-94.5 -21.5q-88 0 -137.5 48t-49.5 138v324h139v-296q0 -103 86 -103q110 0 110 171v79q0 32 -12 64t-46 71q-32 36 -46 67.5t-14 52.5q0 64 45 112t145 48q74 0 121 -43t47 -124h-130q0 56 -47 56q-41 0 -41 -39
q0 -23 15.5 -43.5t38.5 -46.5q38 -43 50.5 -81.5t12.5 -93.5z" />
    <glyph glyph-name="uni0575" unicode="&#x575;" horiz-adv-x="313" 
d="M105 29q-20 49 -20 138v333h139v-333q0 -17 6 -57.5t16 -70.5q21 -61 21 -105q0 -85 -51 -134t-135 -49h-43v105h17q29 0 50.5 17.5t21.5 50.5q0 23 -4.5 48t-17.5 57z" />
    <glyph glyph-name="uni0576" unicode="&#x576;" horiz-adv-x="637" 
d="M417 68q-20 -35 -58.5 -56.5t-94.5 -21.5q-97 0 -152 57t-55 161q0 74 29.5 147.5t70.5 138.5l-33 17q-67 35 -67 100q0 45 15 79l31 70l116 -41l-21 -42q-9 -18 -9 -41q0 -19 11.5 -32.5t44.5 -27.5l43 -19v-16q-40 -77 -64.5 -155.5t-24.5 -151.5q0 -71 26.5 -102
t72.5 -31q114 0 114 171v228h139v-500h-109l-17 68h-8z" />
    <glyph glyph-name="uni0577" unicode="&#x577;" horiz-adv-x="441" 
d="M416 -239h-327q-73 0 -73 60q0 39 42 95l139 182q36 46 57 97.5t21 95.5q0 108 -98 108q-71 0 -140 -33l-30 104q38 19 83.5 29.5t103.5 10.5q104 0 163.5 -57t59.5 -151q0 -74 -30 -135.5t-76 -118.5l-100 -124q-21 -24 -21 -43q0 -15 21 -15h205v-105z" />
    <glyph glyph-name="uni0578" unicode="&#x578;" 
d="M85 0v500h109l17 -67h8q20 35 58.5 56t94.5 21q88 0 137.5 -47.5t49.5 -137.5v-325h-139v296q0 103 -86 103q-110 0 -110 -171v-228h-139z" />
    <glyph glyph-name="uni0579" unicode="&#x579;" horiz-adv-x="381" 
d="M355 -134v-105h-301q-73 0 -73 60q0 22 7.5 41.5t25.5 54.5l177 348l-70 43q-35 21 -50 50.5t-15 57.5q0 49 24 84h134q-17 -28 -17 -67q0 -16 14 -30.5t34 -24.5l118 -62l-197 -386q-7 -14 -12 -27t-5 -22q0 -15 25 -15h181z" />
    <glyph glyph-name="uni057A" unicode="&#x57a;" horiz-adv-x="973" 
d="M748 -239v212q0 25 2 45.5t7 45.5h-7q-21 -33 -56.5 -53t-91.5 -20q-116 0 -163 80h-8q-20 -35 -65.5 -57.5t-98.5 -22.5q-186 0 -186 183v326h139v-295q0 -50 23.5 -76.5t61.5 -26.5q109 0 109 170v228h140v-295q0 -50 24 -76.5t62 -26.5q108 0 108 170v228h139v-739
h-139z" />
    <glyph glyph-name="uni057B" unicode="&#x57b;" horiz-adv-x="532" 
d="M490 -134v-105h-352q-73 0 -73 60q0 22 8.5 43t34.5 52l105 125q-9 21 -29.5 43t-61.5 51q-38 27 -58.5 65t-20.5 90q0 100 62 160t169 60q112 0 173 -57t61 -154q0 -73 -46 -140t-123 -153l-73 -82q-21 -24 -21 -43q0 -15 21 -15h224zM230 197q36 -31 53 -72
q38 48 60.5 89t22.5 74q0 111 -92 111t-92 -111q0 -49 48 -91z" />
    <glyph glyph-name="uni057C" unicode="&#x57c;" horiz-adv-x="673" 
d="M508 105h149v-105h-295v93q44 49 59.5 95t15.5 102q0 109 -99 109q-114 0 -114 -171v-228h-139v500h109l17 -67h8q20 35 58.5 56t94.5 21q97 0 152 -53t55 -141q0 -66 -18.5 -117.5t-52.5 -93.5z" />
    <glyph glyph-name="uni057D" unicode="&#x57d;" 
d="M555 500v-500h-109l-17 68h-8q-20 -35 -58.5 -56.5t-94.5 -21.5q-88 0 -137.5 48t-49.5 138v324h139v-296q0 -103 86 -103q110 0 110 171v228h139z" />
    <glyph glyph-name="uni057E" unicode="&#x57e;" horiz-adv-x="650" 
d="M555 -134h135v-105h-274v240q0 36 8 67h-7q-21 -35 -57 -56.5t-92 -21.5q-88 0 -137.5 48t-49.5 138v324h139v-296q0 -103 86 -103q110 0 110 171v488h139v-894z" />
    <glyph glyph-name="uni057F" unicode="&#x57f;" horiz-adv-x="971" 
d="M703 510q89 0 138 -47.5t49 -137.5v-325h-140v296q0 103 -85 103q-110 0 -110 -171v-228h-109l-17 68h-8q-20 -35 -58.5 -56.5t-94.5 -21.5q-88 0 -137.5 48t-49.5 138v324h139v-296q0 -103 86 -103q110 0 110 171v228h109l17 -67h7q21 35 60 56t94 21z" />
    <glyph glyph-name="uni0580" unicode="&#x580;" 
d="M85 -239v739h109l17 -67h8q20 35 58.5 56t94.5 21q88 0 137.5 -47.5t49.5 -137.5v-325h-139v296q0 103 -86 103q-110 0 -110 -171v-467h-139z" />
    <glyph glyph-name="uni0581" unicode="&#x581;" horiz-adv-x="635" 
d="M272 -249q-81 0 -165 30v108q36 -15 77 -24t91 -9q72 0 103.5 25t31.5 71v21q0 40 7 95h-9q-45 -77 -145 -77q-96 0 -150.5 69.5t-54.5 188.5q0 122 56 191.5t153 69.5q99 0 149 -76h7l17 66h109v-512q0 -118 -64.5 -177.5t-212.5 -59.5zM302 102q108 0 108 146v8
q0 143 -109 143q-101 0 -101 -151q0 -146 102 -146z" />
    <glyph glyph-name="uni0582" unicode="&#x582;" horiz-adv-x="396" 
d="M85 0v500h139v-395h155v-105h-294z" />
    <glyph glyph-name="uni0583" unicode="&#x583;" horiz-adv-x="971" 
d="M703 510q89 0 138 -47.5t49 -137.5v-325h-140v296q0 103 -85 103q-110 0 -110 -171v-467h-139v240q0 30 8 67h-7q-21 -34 -57 -56t-92 -22q-88 0 -137.5 48t-49.5 138v324h139v-296q0 -103 86 -103q110 0 110 171v488h139v-231q0 -53 -7 -96h8q20 35 56 56t91 21z" />
    <glyph glyph-name="uni0584" unicode="&#x584;" horiz-adv-x="635" 
d="M85 -239v84h-70v105h70v550h109l17 -68h7q50 78 150 78q98 0 153 -69.5t55 -190.5q0 -117 -54.5 -188t-151.5 -71t-144 76h-8q6 -59 6 -97v-20h337v-105h-337v-84h-139zM332 102q103 0 103 147q0 150 -100 150q-110 0 -110 -144v-8q0 -145 107 -145z" />
    <glyph glyph-name="uni0585" unicode="&#x585;" horiz-adv-x="614" 
d="M310 -9q-114 0 -183 72t-69 187q0 116 69 188t181 72t180 -72.5t68 -187.5q0 -116 -67 -187.5t-179 -71.5zM308 102q55 0 80.5 39.5t25.5 109.5q0 148 -107 148t-107 -148q0 -70 26.5 -109.5t81.5 -39.5z" />
    <glyph glyph-name="uni0586" unicode="&#x586;" horiz-adv-x="747" 
d="M434 413q142 -16 205.5 -67.5t63.5 -142.5q0 -93 -72.5 -149.5t-196.5 -62.5v-230h-135v230q-140 11 -259 58v117q70 -28 140 -48t119 -22v224q-127 20 -188.5 67t-61.5 131q0 92 81.5 144t224.5 52h79v-301zM188 519q0 -73 111 -94v184q-47 0 -79 -24.5t-32 -65.5z
M434 96q70 2 100 30.5t30 75.5q0 42 -33 71.5t-97 34.5v-212z" />
    <glyph glyph-name="uni0587" unicode="&#x587;" horiz-adv-x="697" 
d="M268 -10q-89 0 -138 48t-49 138v584h139v-556q0 -103 86 -103q110 0 110 171v228h139v-395h137v-105h-257l-16 68h-2q-21 -35 -57 -56.5t-92 -21.5z" />
    <glyph glyph-name="uni0589" unicode="&#x589;" horiz-adv-x="280" 
d="M59 431q0 43 23.5 61t57.5 18q33 0 56.5 -18t23.5 -61q0 -42 -23.5 -60.5t-56.5 -18.5q-34 0 -57.5 18.5t-23.5 60.5zM59 66q0 44 23.5 61.5t57.5 17.5q33 0 56.5 -17.5t23.5 -61.5q0 -41 -23.5 -60t-56.5 -19q-34 0 -57.5 19t-23.5 60z" />
    <glyph glyph-name="uni058A" unicode="&#x58a;" horiz-adv-x="431" 
d="M190 184q-151 0 -151 177h109q0 -38 17.5 -52t58.5 -14q35 0 76.5 4.5t91.5 14.5v-93q-40 -17 -95.5 -27t-106.5 -10z" />
    <glyph glyph-name="uni058D" unicode="&#x58d;" horiz-adv-x="817" 
d="M408 -10q-78 0 -136 52q-76 5 -128.5 57.5t-55.5 126.5q-52 57 -52 131q0 71 51 130q3 74 55 126.5t132 59.5q57 51 134 51q79 0 136 -52q76 -5 129 -56.5t56 -127.5q52 -57 52 -131q0 -73 -51 -130q-3 -74 -55 -126.5t-131 -59.5q-59 -51 -136 -51zM350 394
q-20 39 -20 85q0 62 37 113.5t100 70.5q-25 15 -58 15q-59 0 -100.5 -44t-41.5 -106q0 -44 23 -80t60 -54zM396 431q22 53 72.5 87.5t112.5 34.5q42 0 82 -17q-16 40 -52 65t-78 25q-59 0 -102 -43t-43 -107q0 -26 8 -45zM290 330q31 0 56 13q-59 19 -98.5 70t-39.5 115
q0 47 20 85q-83 -41 -83 -133q0 -62 42.5 -106t102.5 -44zM716 308q8 24 8 49q0 61 -42 103.5t-102 42.5q-44 0 -79.5 -24.5t-51.5 -64.5q38 17 83 17q59 0 110 -32.5t74 -90.5zM238 211q44 0 79.5 24.5t51.5 64.5q-38 -17 -83 -17q-59 0 -110 32.5t-74 90.5q-8 -24 -8 -49
q0 -61 42 -103.5t102 -42.5zM589 102q35 14 59 50.5t24 81.5q0 62 -42.5 106t-101.5 44q-31 0 -57 -13q60 -19 99.5 -70t39.5 -115q0 -44 -21 -84zM409 36q59 0 100 44t41 106q0 44 -23 80t-60 54q20 -39 20 -85q0 -62 -37 -113.5t-100 -70.5q28 -15 59 -15zM285 88
q59 0 102 43t43 107q0 23 -8 45q-22 -53 -72.5 -87.5t-112.5 -34.5q-44 0 -81 17q16 -40 51.5 -65t77.5 -25z" />
    <glyph glyph-name="uni058E" unicode="&#x58e;" horiz-adv-x="818" 
d="M408 -10q-76 0 -135 51q-79 7 -131 59.5t-55 126.5q-51 57 -51 130q0 74 52 131q3 76 55.5 127.5t129.5 56.5q57 52 135 52t135 -51q80 -7 132 -59.5t55 -126.5q51 -59 51 -130q0 -74 -52 -131q-3 -74 -55 -126.5t-129 -57.5q-58 -52 -137 -52zM467 394q37 18 60 54
t23 80q0 62 -41 106t-100 44q-32 0 -59 -15q63 -19 100 -70.5t37 -113.5q0 -46 -20 -85zM422 431q8 22 8 45q0 64 -43 107t-102 43q-42 0 -78 -25t-52 -65q39 17 82 17q62 0 112.5 -34.5t72.5 -87.5zM528 330q59 0 101.5 44t42.5 106q0 92 -83 133q21 -40 21 -85
q0 -64 -39.5 -115t-99.5 -70q26 -13 57 -13zM102 308q23 58 74 90.5t110 32.5q45 0 83 -17q-16 40 -51.5 64.5t-79.5 24.5q-60 0 -102 -42.5t-42 -103.5q0 -25 8 -49zM580 211q60 0 102 42.5t42 103.5q0 25 -8 49q-23 -58 -74 -90.5t-110 -32.5q-45 0 -83 17
q16 -40 51.5 -64.5t79.5 -24.5zM228 102q-20 38 -20 84q0 64 39.5 115t98.5 70q-25 13 -56 13q-60 0 -102.5 -44t-42.5 -106q0 -45 24.5 -81.5t58.5 -50.5zM409 36q31 0 58 15q-63 19 -100 70.5t-37 113.5q0 46 20 85q-37 -18 -60 -54t-23 -80q0 -62 41.5 -106t100.5 -44z
M533 88q42 0 77.5 25t51.5 65q-39 -17 -81 -17q-62 0 -112.5 34.5t-72.5 87.5q-8 -19 -8 -45q0 -64 43 -107t102 -43z" />
    <glyph glyph-name="uni058F" unicode="&#x58f;" horiz-adv-x="756" 
d="M743 208h-134v-208h-141v208h-134v87h134v61h-134v86h134v28q0 139 -139 139q-72 0 -105 -41.5t-33 -134.5h-141q0 133 70 212t212 79q135 0 206 -72t71 -192v-18h134v-86h-134v-61h134v-87z" />
    <glyph glyph-name="uni2010" unicode="&#x2010;" horiz-adv-x="322" 
d="M30 207v122h262v-122h-262z" />
    <glyph glyph-name="hyphentwo" horiz-adv-x="600" 
d="M94 0v714h411v-714h-411zM145 51h309v612h-309v-612z" />
    </font>
</defs>
</svg>
